<svg width="46" height="27" viewBox="0 0 46 27" fill="none" xmlns="http://www.w3.org/2000/svg">
<path fill-rule="evenodd" clip-rule="evenodd" d="M20.5848 1.33443C21.2255 0.693903 22.0944 0.334075 23.0004 0.334075C23.9064 0.334075 24.7752 0.693903 25.416 1.33443L44.744 20.6625C45.0704 20.9777 45.3307 21.3547 45.5097 21.7715C45.6888 22.1884 45.783 22.6367 45.787 23.0904C45.7909 23.5441 45.7045 23.994 45.5327 24.4139C45.3609 24.8337 45.1072 25.2152 44.7864 25.536C44.4656 25.8568 44.0841 26.1105 43.6642 26.2823C43.2443 26.4541 42.7944 26.5406 42.3408 26.5366C41.8871 26.5327 41.4388 26.4384 41.0219 26.2594C40.6051 26.0803 40.2281 25.82 39.9129 25.4937L23.0004 8.58118L6.08787 25.4937C5.44348 26.116 4.58043 26.4604 3.68459 26.4526C2.78875 26.4449 1.93181 26.0855 1.29833 25.4521C0.664852 24.8186 0.305523 23.9616 0.297738 23.0658C0.289954 22.17 0.634334 21.3069 1.25671 20.6625L20.5848 1.33443Z" fill="white"/>
</svg>
