<svg width="82" height="82" viewBox="0 0 82 82" fill="none" xmlns="http://www.w3.org/2000/svg">
<path fill-rule="evenodd" clip-rule="evenodd" d="M43.4152 53.6657C42.7745 54.3062 41.9056 54.666 40.9996 54.666C40.0936 54.666 39.2248 54.3062 38.584 53.6657L19.256 34.3376C18.9296 34.0224 18.6693 33.6454 18.4903 33.2286C18.3112 32.8117 18.217 32.3634 18.213 31.9097C18.2091 31.4561 18.2955 31.0062 18.4673 30.5863C18.6391 30.1664 18.8928 29.7849 19.2136 29.4641C19.5344 29.1433 19.9159 28.8896 20.3358 28.7178C20.7557 28.546 21.2056 28.4596 21.6592 28.4635C22.1129 28.4675 22.5612 28.5617 22.9781 28.7408C23.3949 28.9198 23.7719 29.1801 24.0871 29.5064L40.9996 46.4189L57.9121 29.5064C58.5565 28.8841 59.4196 28.5397 60.3154 28.5475C61.2113 28.5553 62.0682 28.9146 62.7017 29.5481C63.3351 30.1815 63.6945 31.0385 63.7023 31.9343C63.71 32.8302 63.3657 33.6932 62.7433 34.3376L43.4152 53.6657Z" fill="black"/>
</svg>
