<svg width="82" height="82" viewBox="0 0 82 82" fill="none" xmlns="http://www.w3.org/2000/svg">
<path fill-rule="evenodd" clip-rule="evenodd" d="M38.5843 28.3344C39.225 27.6939 40.0939 27.3341 40.9999 27.3341C41.9059 27.3341 42.7747 27.6939 43.4155 28.3344L62.7436 47.6625C63.0699 47.9777 63.3302 48.3547 63.5092 48.7715C63.6883 49.1884 63.7825 49.6367 63.7865 50.0904C63.7904 50.5441 63.704 50.994 63.5322 51.4139C63.3604 51.8337 63.1067 52.2152 62.7859 52.536C62.4651 52.8568 62.0836 53.1105 61.6637 53.2823C61.2438 53.4541 60.7939 53.5406 60.3403 53.5366C59.8866 53.5327 59.4383 53.4384 59.0214 53.2594C58.6046 53.0803 58.2276 52.82 57.9124 52.4937L40.9999 35.5812L24.0874 52.4937C23.443 53.116 22.5799 53.4604 21.6841 53.4526C20.7883 53.4449 19.9313 53.0855 19.2978 52.4521C18.6644 51.8186 18.305 50.9616 18.2972 50.0658C18.2895 49.17 18.6338 48.3069 19.2562 47.6625L38.5843 28.3344Z" fill="black"/>
</svg>
