<svg width="82" height="82" viewBox="0 0 82 82" fill="none" xmlns="http://www.w3.org/2000/svg">
<path fill-rule="evenodd" clip-rule="evenodd" d="M43.4152 53.6656C42.7745 54.3061 41.9056 54.6659 40.9996 54.6659C40.0936 54.6659 39.2248 54.3061 38.584 53.6656L19.256 34.3375C18.9296 34.0223 18.6693 33.6453 18.4903 33.2285C18.3112 32.8116 18.217 32.3633 18.213 31.9096C18.2091 31.4559 18.2955 31.006 18.4673 30.5861C18.6391 30.1663 18.8928 29.7848 19.2136 29.464C19.5344 29.1432 19.9159 28.8895 20.3358 28.7177C20.7557 28.5459 21.2056 28.4594 21.6592 28.4634C22.1129 28.4673 22.5612 28.5616 22.9781 28.7406C23.3949 28.9197 23.7719 29.18 24.0871 29.5063L40.9996 46.4188L57.9121 29.5063C58.5565 28.884 59.4196 28.5396 60.3154 28.5474C61.2113 28.5551 62.0682 28.9145 62.7017 29.5479C63.3351 30.1814 63.6945 31.0384 63.7023 31.9342C63.71 32.83 63.3657 33.6931 62.7433 34.3375L43.4152 53.6656Z" fill="white"/>
</svg>
