<svg width="50" height="50" viewBox="0 0 50 50" fill="none" xmlns="http://www.w3.org/2000/svg">
<path d="M21.005 34C18.9317 34 16.9817 33.6329 15.155 32.8987C13.3294 32.1634 11.7411 31.1658 10.39 29.9058C9.03889 28.6458 7.96944 27.1649 7.18167 25.4631C6.39389 23.7613 6 21.9419 6 20.0047C6 18.0675 6.39389 16.2475 7.18167 14.5447C7.96833 12.8408 9.03556 11.3584 10.3833 10.0973C11.7311 8.8363 13.3183 7.83815 15.145 7.10289C16.9717 6.36763 18.9217 6 20.995 6C23.0683 6 25.0183 6.36763 26.845 7.10289C28.6706 7.83711 30.2589 8.8337 31.61 10.0927C32.9611 11.3516 34.0306 12.833 34.8183 14.5369C35.6061 16.2407 36 18.0602 36 19.9953C36 21.9304 35.6067 23.7504 34.82 25.4553C34.0333 27.1602 32.9644 28.6427 31.6133 29.9027C30.2622 31.1627 28.6756 32.1608 26.8533 32.8971C25.0311 33.6334 23.0817 34.001 21.005 34ZM21 32.4444C24.7222 32.4444 27.875 31.2389 30.4583 28.8278C33.0417 26.4167 34.3333 23.4741 34.3333 20C34.3333 16.5259 33.0417 13.5833 30.4583 11.1722C27.875 8.76111 24.7222 7.55556 21 7.55556C17.2778 7.55556 14.125 8.76111 11.5417 11.1722C8.95833 13.5833 7.66667 16.5259 7.66667 20C7.66667 23.4741 8.95833 26.4167 11.5417 28.8278C14.125 31.2389 17.2778 32.4444 21 32.4444Z" fill="#8AA6C7" stroke="#8AA6C7" stroke-width="3"/>
</svg>
