<svg width="451" height="88" viewBox="0 0 451 88" fill="none" xmlns="http://www.w3.org/2000/svg">
<path d="M125.221 60V33.491H110.374V26.337H148.447V33.491H133.649V60H125.221ZM149.663 60V34.177H155.837L156.376 38.636H156.768C157.192 37.6887 157.764 36.8393 158.483 36.088C159.234 35.304 160.116 34.6997 161.129 34.275C162.141 33.8177 163.285 33.589 164.559 33.589C165.147 33.589 165.735 33.638 166.323 33.736C166.911 33.8013 167.45 33.9157 167.94 34.079V40.498H164.167C162.925 40.498 161.864 40.7103 160.982 41.135C160.132 41.527 159.43 42.0823 158.875 42.801C158.352 43.487 157.96 44.271 157.699 45.153C157.437 46.0023 157.307 46.9007 157.307 47.848V60H149.663ZM181.093 60.588C179.525 60.588 178.071 60.4573 176.732 60.196C175.392 59.9673 174.216 59.5753 173.204 59.02C172.191 58.432 171.391 57.648 170.803 56.668C170.247 55.688 169.97 54.4467 169.97 52.944C169.97 50.886 170.541 49.269 171.685 48.093C172.828 46.8843 174.429 46.0187 176.487 45.496C178.577 44.9733 181.011 44.6467 183.788 44.516C186.597 44.3527 189.651 44.271 192.951 44.271V43.34C192.951 42.262 192.689 41.4127 192.167 40.792C191.644 40.1713 190.844 39.7303 189.766 39.469C188.72 39.175 187.348 39.028 185.65 39.028C184.376 39.028 183.2 39.126 182.122 39.322C181.076 39.4853 180.243 39.763 179.623 40.155C179.002 40.5143 178.692 40.988 178.692 41.576V42.066H170.999C170.966 41.9353 170.933 41.821 170.901 41.723C170.901 41.5923 170.901 41.4453 170.901 41.282C170.901 39.7467 171.472 38.4073 172.616 37.264C173.759 36.088 175.458 35.1897 177.712 34.569C179.998 33.9157 182.824 33.589 186.189 33.589C189.325 33.589 191.954 33.8667 194.078 34.422C196.234 34.9773 197.867 35.892 198.978 37.166C200.088 38.44 200.644 40.1387 200.644 42.262V53.091C200.644 53.679 200.758 54.1527 200.987 54.512C201.248 54.8387 201.673 55.002 202.261 55.002H204.809V59.706C204.417 59.8693 203.763 60.049 202.849 60.245C201.934 60.4737 200.921 60.588 199.811 60.588C198.308 60.588 197.116 60.4083 196.234 60.049C195.384 59.7223 194.764 59.265 194.372 58.677C193.98 58.0563 193.702 57.3867 193.539 56.668H193.147C192.232 57.4847 191.138 58.187 189.864 58.775C188.622 59.363 187.267 59.804 185.797 60.098C184.327 60.4247 182.759 60.588 181.093 60.588ZM183.102 55.149C184.016 55.149 185.029 55.051 186.14 54.855C187.283 54.6263 188.377 54.316 189.423 53.924C190.468 53.4993 191.317 52.9767 191.971 52.356C192.624 51.7353 192.951 50.984 192.951 50.102V48.73C189.455 48.73 186.581 48.8607 184.327 49.122C182.073 49.3833 180.39 49.7917 179.28 50.347C178.169 50.9023 177.614 51.6863 177.614 52.699C177.614 53.385 177.875 53.9077 178.398 54.267C178.953 54.5937 179.655 54.8223 180.505 54.953C181.354 55.0837 182.22 55.149 183.102 55.149ZM208.185 30.208V24.524H215.829V30.208H208.185ZM208.185 60V34.177H215.829V60H208.185ZM222.589 60V34.177H228.763L229.302 38.538H229.743C230.69 37.2967 231.752 36.3167 232.928 35.598C234.136 34.8793 235.41 34.373 236.75 34.079C238.122 33.7523 239.461 33.589 240.768 33.589C243.218 33.589 245.259 33.981 246.893 34.765C248.559 35.5163 249.8 36.676 250.617 38.244C251.433 39.812 251.842 41.7883 251.842 44.173V60H244.198V45.398C244.198 44.3853 244.051 43.5197 243.757 42.801C243.463 42.0497 243.054 41.4453 242.532 40.988C242.009 40.5307 241.356 40.204 240.572 40.008C239.82 39.7793 238.971 39.665 238.024 39.665C236.652 39.665 235.378 39.959 234.202 40.547C233.026 41.1023 232.062 41.8863 231.311 42.899C230.592 43.879 230.233 45.0387 230.233 46.378V60H222.589ZM258.477 30.208V24.524H266.121V30.208H258.477ZM258.477 60V34.177H266.121V60H258.477ZM272.881 60V34.177H279.055L279.594 38.538H280.035C280.982 37.2967 282.044 36.3167 283.22 35.598C284.428 34.8793 285.702 34.373 287.042 34.079C288.414 33.7523 289.753 33.589 291.06 33.589C293.51 33.589 295.551 33.981 297.185 34.765C298.851 35.5163 300.092 36.676 300.909 38.244C301.725 39.812 302.134 41.7883 302.134 44.173V60H294.49V45.398C294.49 44.3853 294.343 43.5197 294.049 42.801C293.755 42.0497 293.346 41.4453 292.824 40.988C292.301 40.5307 291.648 40.204 290.864 40.008C290.112 39.7793 289.263 39.665 288.316 39.665C286.944 39.665 285.67 39.959 284.494 40.547C283.318 41.1023 282.354 41.8863 281.603 42.899C280.884 43.879 280.525 45.0387 280.525 46.378V60H272.881ZM314.061 69.849C312.657 69.849 311.334 69.6367 310.092 69.212C308.884 68.7873 307.904 68.1177 307.152 67.203C306.401 66.2883 306.025 65.0797 306.025 63.577C306.025 62.303 306.483 61.176 307.397 60.196C308.312 59.216 309.488 58.481 310.925 57.991C309.88 57.4683 309.112 56.7823 308.622 55.933C308.165 55.0837 307.936 54.169 307.936 53.189C307.936 51.817 308.394 50.641 309.308 49.661C310.256 48.6483 311.53 48.0277 313.13 47.799C311.824 47.113 310.762 46.2473 309.945 45.202C309.161 44.124 308.769 42.9807 308.769 41.772C308.769 39.7467 309.357 38.1297 310.533 36.921C311.709 35.7123 313.408 34.863 315.629 34.373C317.851 33.8503 320.529 33.589 323.665 33.589C324.809 33.589 325.903 33.638 326.948 33.736C327.994 33.834 328.99 33.981 329.937 34.177C331.538 33.4583 332.73 32.6907 333.514 31.874C334.331 31.0247 334.805 30.257 334.935 29.571H342.04C342.008 30.8123 341.73 31.874 341.207 32.756C340.685 33.638 339.933 34.373 338.953 34.961C337.973 35.549 336.797 35.99 335.425 36.284C336.405 36.9373 337.157 37.7377 337.679 38.685C338.235 39.5997 338.512 40.645 338.512 41.821C338.512 43.683 337.99 45.2183 336.944 46.427C335.932 47.6357 334.445 48.534 332.485 49.122C330.558 49.6773 328.206 49.955 325.429 49.955H318.765C317.785 49.955 317.034 50.1183 316.511 50.445C315.989 50.7717 315.727 51.229 315.727 51.817C315.727 52.405 315.972 52.8787 316.462 53.238C316.985 53.5973 317.818 53.777 318.961 53.777H333.857C336.438 53.777 338.398 54.512 339.737 55.982C341.077 57.4193 341.746 59.265 341.746 61.519C341.746 63.185 341.305 64.6387 340.423 65.88C339.541 67.1213 338.365 68.085 336.895 68.771C335.458 69.4897 333.857 69.849 332.093 69.849H314.061ZM316.56 64.949H331.211C331.734 64.949 332.208 64.8347 332.632 64.606C333.057 64.41 333.4 64.0997 333.661 63.675C333.923 63.2503 334.053 62.7767 334.053 62.254C334.053 61.4373 333.759 60.8003 333.171 60.343C332.616 59.8857 331.963 59.657 331.211 59.657H316.756C315.907 59.657 315.188 59.8693 314.6 60.294C314.045 60.7513 313.767 61.3883 313.767 62.205C313.767 63.0217 314.029 63.675 314.551 64.165C315.107 64.6877 315.776 64.949 316.56 64.949ZM323.665 45.153C325.887 45.153 327.634 44.908 328.908 44.418C330.182 43.928 330.819 43.046 330.819 41.772C330.819 40.498 330.182 39.616 328.908 39.126C327.634 38.636 325.887 38.391 323.665 38.391C321.444 38.391 319.696 38.636 318.422 39.126C317.148 39.616 316.511 40.498 316.511 41.772C316.511 42.6867 316.789 43.389 317.344 43.879C317.932 44.369 318.765 44.712 319.843 44.908C320.921 45.0713 322.195 45.153 323.665 45.153Z" fill="black"/>
</svg>
