<svg width="262" height="323" viewBox="0 0 262 323" fill="none" xmlns="http://www.w3.org/2000/svg">
<g filter="url(#filter0_d_191_1716)">
<path d="M54.16 82.96C49.1011 82.96 44.3431 82.0642 39.886 80.2727C35.4317 78.4787 31.5562 76.0445 28.2594 72.9701C24.9627 69.8957 22.3533 66.2823 20.4311 62.13C18.5089 57.9776 17.5479 53.5381 17.5479 48.8114C17.5479 44.0847 18.5089 39.6439 20.4311 35.489C22.3506 31.3316 24.9546 27.7144 28.2432 24.6375C31.5318 21.5606 35.4046 19.1251 39.8617 17.331C44.3187 15.537 49.0767 14.64 54.1357 14.64C59.1946 14.64 63.9526 15.537 68.4096 17.331C72.864 19.1226 76.7395 21.5542 80.0362 24.6261C83.333 27.698 85.9424 31.3126 87.8646 35.47C89.7868 39.6274 90.7478 44.0669 90.7478 48.7886C90.7478 53.5103 89.7881 57.9511 87.8686 62.111C85.9492 66.2709 83.3411 69.8881 80.0444 72.9625C76.7477 76.0369 72.8762 78.4724 68.43 80.2689C63.9838 82.0655 59.2271 82.9625 54.16 82.96ZM54.1479 79.1644C63.2301 79.1644 70.9228 76.2229 77.2262 70.3398C83.5295 64.4567 86.6812 57.2767 86.6812 48.8C86.6812 40.3233 83.5295 33.1433 77.2262 27.2602C70.9228 21.3771 63.2301 18.4356 54.1479 18.4356C45.0656 18.4356 37.3728 21.3771 31.0695 27.2602C24.7662 33.1433 21.6145 40.3233 21.6145 48.8C21.6145 57.2767 24.7662 64.4567 31.0695 70.3398C37.3728 76.2229 45.0656 79.1644 54.1479 79.1644Z" fill="url(#paint0_linear_191_1716)"/>
<path d="M54.16 82.96C49.1011 82.96 44.3431 82.0642 39.886 80.2727C35.4317 78.4787 31.5562 76.0445 28.2594 72.9701C24.9627 69.8957 22.3533 66.2823 20.4311 62.13C18.5089 57.9776 17.5479 53.5381 17.5479 48.8114C17.5479 44.0847 18.5089 39.6439 20.4311 35.489C22.3506 31.3316 24.9546 27.7144 28.2432 24.6375C31.5318 21.5606 35.4046 19.1251 39.8617 17.331C44.3187 15.537 49.0767 14.64 54.1357 14.64C59.1946 14.64 63.9526 15.537 68.4096 17.331C72.864 19.1226 76.7395 21.5542 80.0362 24.6261C83.333 27.698 85.9424 31.3126 87.8646 35.47C89.7868 39.6274 90.7478 44.0669 90.7478 48.7886C90.7478 53.5103 89.7881 57.9511 87.8686 62.111C85.9492 66.2709 83.3411 69.8881 80.0444 72.9625C76.7477 76.0369 72.8762 78.4724 68.43 80.2689C63.9838 82.0655 59.2271 82.9625 54.16 82.96ZM54.1479 79.1644C63.2301 79.1644 70.9228 76.2229 77.2262 70.3398C83.5295 64.4567 86.6812 57.2767 86.6812 48.8C86.6812 40.3233 83.5295 33.1433 77.2262 27.2602C70.9228 21.3771 63.2301 18.4356 54.1479 18.4356C45.0656 18.4356 37.3728 21.3771 31.0695 27.2602C24.7662 33.1433 21.6145 40.3233 21.6145 48.8C21.6145 57.2767 24.7662 64.4567 31.0695 70.3398C37.3728 76.2229 45.0656 79.1644 54.1479 79.1644Z" stroke="url(#paint1_linear_191_1716)" stroke-width="3"/>
</g>
<g clip-path="url(#clip0_191_1716)">
<g filter="url(#filter1_d_191_1716)">
<path d="M226.797 82.7452L153.606 104.369L209.105 156.985M217.23 92.8361L205.135 143.641L167.143 107.622" fill="url(#paint2_linear_191_1716)"/>
<path d="M226.797 82.7452L153.606 104.369L209.105 156.985M217.23 92.8361L205.135 143.641L167.143 107.622" stroke="url(#paint3_linear_191_1716)" stroke-width="2"/>
</g>
</g>
<g clip-path="url(#clip1_191_1716)">
<g filter="url(#filter2_d_191_1716)">
<path d="M66.5847 170.882L120.557 150.806" stroke="url(#paint4_linear_191_1716)" stroke-width="6" stroke-linecap="round" stroke-linejoin="round" shape-rendering="crispEdges"/>
</g>
</g>
<g clip-path="url(#clip2_191_1716)">
<g filter="url(#filter3_d_191_1716)">
<path d="M119.385 258.313C119.542 258.051 119.641 257.759 119.677 257.456C119.713 257.153 119.684 256.845 119.593 256.554C119.502 256.263 119.351 255.994 119.148 255.765C118.946 255.537 118.698 255.353 118.42 255.227L106.356 249.88C106.031 249.732 105.748 249.506 105.531 249.223C105.314 248.939 105.171 248.607 105.112 248.255C105.054 247.903 105.083 247.542 105.198 247.204C105.312 246.866 105.507 246.561 105.767 246.316L137.039 217.234C137.345 216.937 137.732 216.738 138.151 216.661C138.57 216.585 139.002 216.635 139.393 216.805L157.158 224.679C158.546 225.294 158.867 227.13 157.777 228.218L139.073 246.8C138.82 247.047 138.631 247.352 138.522 247.689C138.413 248.025 138.388 248.383 138.448 248.731C138.509 249.08 138.653 249.408 138.869 249.688C139.085 249.968 139.366 250.191 139.688 250.338L150.981 255.344C152.601 256.062 152.69 258.355 151.129 259.234L104.247 285.716C103.858 285.935 103.443 285.502 103.664 285.12L119.385 258.313Z" stroke="url(#paint5_linear_191_1716)" stroke-width="6" stroke-linecap="round" stroke-linejoin="round" shape-rendering="crispEdges"/>
</g>
</g>
<g filter="url(#filter4_d_191_1716)">
<mask id="path-6-inside-1_191_1716" fill="white">
<path d="M35.9997 157.865L19.9579 177.172L-45.9998 133.86L-29.958 114.553L35.9997 157.865ZM30.2731 157.089L-27.4398 119.191L-40.2732 134.637L17.4397 172.535L30.2731 157.089Z"/>
</mask>
<path d="M35.9997 157.865L19.9579 177.172L-45.9998 133.86L-29.958 114.553L35.9997 157.865ZM30.2731 157.089L-27.4398 119.191L-40.2732 134.637L17.4397 172.535L30.2731 157.089Z" fill="url(#paint6_linear_191_1716)"/>
<path d="M35.9997 157.865L41.8509 161.707L46.3243 156.323L40.4731 152.481L35.9997 157.865ZM19.9579 177.172L15.4845 182.556L21.3357 186.399L25.8091 181.015L19.9579 177.172ZM-45.9998 133.86L-51.851 130.018L-56.3244 135.402L-50.4732 139.244L-45.9998 133.86ZM-29.958 114.553L-25.4846 109.169L-31.3358 105.327L-35.8092 110.711L-29.958 114.553ZM30.2731 157.089L36.1244 160.931L40.5978 155.547L34.7466 151.705L30.2731 157.089ZM-27.4398 119.191L-22.9664 113.807L-28.8176 109.964L-33.2911 115.348L-27.4398 119.191ZM-40.2732 134.637L-46.1245 130.794L-50.5979 136.178L-44.7467 140.021L-40.2732 134.637ZM17.4397 172.535L12.9663 177.919L18.8175 181.761L23.2909 176.377L17.4397 172.535ZM35.9997 157.865L30.1484 154.023L14.1067 173.33L19.9579 177.172L25.8091 181.015L41.8509 161.707L35.9997 157.865ZM19.9579 177.172L24.4313 171.788L-41.5263 128.476L-45.9998 133.86L-50.4732 139.244L15.4845 182.556L19.9579 177.172ZM-45.9998 133.86L-40.1486 137.703L-24.1068 118.395L-29.958 114.553L-35.8092 110.711L-51.851 130.018L-45.9998 133.86ZM-29.958 114.553L-34.4315 119.937L31.5262 163.249L35.9997 157.865L40.4731 152.481L-25.4846 109.169L-29.958 114.553ZM30.2731 157.089L34.7466 151.705L-22.9664 113.807L-27.4398 119.191L-31.9133 124.575L25.7997 162.473L30.2731 157.089ZM-27.4398 119.191L-33.2911 115.348L-46.1245 130.794L-40.2732 134.637L-34.422 138.479L-21.5886 123.033L-27.4398 119.191ZM-40.2732 134.637L-44.7467 140.021L12.9663 177.919L17.4397 172.535L21.9132 167.15L-35.7998 129.252L-40.2732 134.637ZM17.4397 172.535L23.2909 176.377L36.1244 160.931L30.2731 157.089L24.4219 153.246L11.5885 168.692L17.4397 172.535Z" fill="url(#paint7_linear_191_1716)" mask="url(#path-6-inside-1_191_1716)"/>
</g>
<defs>
<filter id="filter0_d_191_1716" x="12.0479" y="13.14" width="84.2002" height="79.32" filterUnits="userSpaceOnUse" color-interpolation-filters="sRGB">
<feFlood flood-opacity="0" result="BackgroundImageFix"/>
<feColorMatrix in="SourceAlpha" type="matrix" values="0 0 0 0 0 0 0 0 0 0 0 0 0 0 0 0 0 0 127 0" result="hardAlpha"/>
<feOffset dy="4"/>
<feGaussianBlur stdDeviation="2"/>
<feComposite in2="hardAlpha" operator="out"/>
<feColorMatrix type="matrix" values="0 0 0 0 0 0 0 0 0 0 0 0 0 0 0 0 0 0 0.5 0"/>
<feBlend mode="normal" in2="BackgroundImageFix" result="effect1_dropShadow_191_1716"/>
<feBlend mode="normal" in="SourceGraphic" in2="effect1_dropShadow_191_1716" result="shape"/>
</filter>
<filter id="filter1_d_191_1716" x="147.659" y="81.7862" width="83.4209" height="83.9245" filterUnits="userSpaceOnUse" color-interpolation-filters="sRGB">
<feFlood flood-opacity="0" result="BackgroundImageFix"/>
<feColorMatrix in="SourceAlpha" type="matrix" values="0 0 0 0 0 0 0 0 0 0 0 0 0 0 0 0 0 0 127 0" result="hardAlpha"/>
<feOffset dy="4"/>
<feGaussianBlur stdDeviation="2"/>
<feComposite in2="hardAlpha" operator="out"/>
<feColorMatrix type="matrix" values="0 0 0 0 0 0 0 0 0 0 0 0 0 0 0 0 0 0 0.5 0"/>
<feBlend mode="normal" in2="BackgroundImageFix" result="effect1_dropShadow_191_1716"/>
<feBlend mode="normal" in="SourceGraphic" in2="effect1_dropShadow_191_1716" result="shape"/>
</filter>
<filter id="filter2_d_191_1716" x="59.584" y="147.806" width="67.9736" height="34.0773" filterUnits="userSpaceOnUse" color-interpolation-filters="sRGB">
<feFlood flood-opacity="0" result="BackgroundImageFix"/>
<feColorMatrix in="SourceAlpha" type="matrix" values="0 0 0 0 0 0 0 0 0 0 0 0 0 0 0 0 0 0 127 0" result="hardAlpha"/>
<feOffset dy="4"/>
<feGaussianBlur stdDeviation="2"/>
<feComposite in2="hardAlpha" operator="out"/>
<feColorMatrix type="matrix" values="0 0 0 0 0 0 0 0 0 0 0 0 0 0 0 0 0 0 0.5 0"/>
<feBlend mode="normal" in2="BackgroundImageFix" result="effect1_dropShadow_191_1716"/>
<feBlend mode="normal" in="SourceGraphic" in2="effect1_dropShadow_191_1716" result="shape"/>
</filter>
<filter id="filter3_d_191_1716" x="96.6025" y="213.626" width="68.8252" height="83.1819" filterUnits="userSpaceOnUse" color-interpolation-filters="sRGB">
<feFlood flood-opacity="0" result="BackgroundImageFix"/>
<feColorMatrix in="SourceAlpha" type="matrix" values="0 0 0 0 0 0 0 0 0 0 0 0 0 0 0 0 0 0 127 0" result="hardAlpha"/>
<feOffset dy="4"/>
<feGaussianBlur stdDeviation="2"/>
<feComposite in2="hardAlpha" operator="out"/>
<feColorMatrix type="matrix" values="0 0 0 0 0 0 0 0 0 0 0 0 0 0 0 0 0 0 0.5 0"/>
<feBlend mode="normal" in2="BackgroundImageFix" result="effect1_dropShadow_191_1716"/>
<feBlend mode="normal" in="SourceGraphic" in2="effect1_dropShadow_191_1716" result="shape"/>
</filter>
<filter id="filter4_d_191_1716" x="-50" y="114.553" width="90" height="70.6193" filterUnits="userSpaceOnUse" color-interpolation-filters="sRGB">
<feFlood flood-opacity="0" result="BackgroundImageFix"/>
<feColorMatrix in="SourceAlpha" type="matrix" values="0 0 0 0 0 0 0 0 0 0 0 0 0 0 0 0 0 0 127 0" result="hardAlpha"/>
<feOffset dy="4"/>
<feGaussianBlur stdDeviation="2"/>
<feComposite in2="hardAlpha" operator="out"/>
<feColorMatrix type="matrix" values="0 0 0 0 0 0 0 0 0 0 0 0 0 0 0 0 0 0 0.5 0"/>
<feBlend mode="normal" in2="BackgroundImageFix" result="effect1_dropShadow_191_1716"/>
<feBlend mode="normal" in="SourceGraphic" in2="effect1_dropShadow_191_1716" result="shape"/>
</filter>
<linearGradient id="paint0_linear_191_1716" x1="54.1479" y1="14.64" x2="54.1479" y2="82.96" gradientUnits="userSpaceOnUse">
<stop stop-color="#FFD000"/>
<stop offset="1" stop-color="#003E85"/>
</linearGradient>
<linearGradient id="paint1_linear_191_1716" x1="54.1479" y1="14.64" x2="54.1479" y2="82.96" gradientUnits="userSpaceOnUse">
<stop stop-color="#FFD000"/>
<stop offset="1" stop-color="#003E85"/>
</linearGradient>
<linearGradient id="paint2_linear_191_1716" x1="226.797" y1="82.7452" x2="181.355" y2="130.677" gradientUnits="userSpaceOnUse">
<stop stop-color="#FFD000"/>
<stop offset="1" stop-color="#003E85"/>
</linearGradient>
<linearGradient id="paint3_linear_191_1716" x1="226.797" y1="82.7452" x2="181.355" y2="130.677" gradientUnits="userSpaceOnUse">
<stop stop-color="#FFD000"/>
<stop offset="1" stop-color="#003E85"/>
</linearGradient>
<linearGradient id="paint4_linear_191_1716" x1="120.731" y1="151.275" x2="66.759" y2="171.351" gradientUnits="userSpaceOnUse">
<stop stop-color="#FFD000"/>
<stop offset="1" stop-color="#003E85"/>
</linearGradient>
<linearGradient id="paint5_linear_191_1716" x1="143.694" y1="218.711" x2="112.322" y2="289.488" gradientUnits="userSpaceOnUse">
<stop stop-color="#FFD000"/>
<stop offset="1" stop-color="#003E85"/>
</linearGradient>
<linearGradient id="paint6_linear_191_1716" x1="3.02083" y1="136.209" x2="-10.6709" y2="157.059" gradientUnits="userSpaceOnUse">
<stop stop-color="#FFD000"/>
<stop offset="1" stop-color="#003E85"/>
</linearGradient>
<linearGradient id="paint7_linear_191_1716" x1="3.02083" y1="136.209" x2="-10.6709" y2="157.059" gradientUnits="userSpaceOnUse">
<stop stop-color="#FFD000"/>
<stop offset="1" stop-color="#003E85"/>
</linearGradient>
<clipPath id="clip0_191_1716">
<rect width="83.4293" height="83.4293" fill="white" transform="translate(201.308 49) rotate(43.4722)"/>
</clipPath>
<clipPath id="clip1_191_1716">
<rect width="72" height="72" fill="white" transform="translate(98.5635 113) rotate(49.2734)"/>
</clipPath>
<clipPath id="clip2_191_1716">
<rect width="103.225" height="103.225" fill="white" transform="translate(101.738 186) rotate(23.9055)"/>
</clipPath>
</defs>
</svg>
