<svg width="312" height="299" viewBox="0 0 312 299" fill="none" xmlns="http://www.w3.org/2000/svg">
<g filter="url(#filter0_d_154_398)">
<path d="M104.16 82.96C99.1012 82.96 94.3432 82.0643 89.8862 80.2728C85.4318 78.4787 81.5563 76.0445 78.2596 72.9701C74.9629 69.8957 72.3534 66.2823 70.4312 62.13C68.5091 57.9777 67.548 53.5381 67.548 48.8114C67.548 44.0847 68.5091 39.6439 70.4312 35.489C72.3507 31.3316 74.9547 27.7144 78.2433 24.6375C81.5319 21.5606 85.4047 19.1251 89.8618 17.3311C94.3188 15.537 99.0768 14.64 104.136 14.64C109.195 14.64 113.953 15.537 118.41 17.3311C122.864 19.1226 126.74 21.5543 130.036 24.6261C133.333 27.698 135.943 31.3126 137.865 35.47C139.787 39.6274 140.748 44.067 140.748 48.7886C140.748 53.5103 139.788 57.9511 137.869 62.111C135.949 66.271 133.341 69.8881 130.045 72.9625C126.748 76.0369 122.876 78.4724 118.43 80.269C113.984 82.0655 109.227 82.9625 104.16 82.96ZM104.148 79.1645C113.23 79.1645 120.923 76.2229 127.226 70.3398C133.53 64.4567 136.681 57.2768 136.681 48.8C136.681 40.3233 133.53 33.1433 127.226 27.2602C120.923 21.3771 113.23 18.4356 104.148 18.4356C95.0658 18.4356 87.373 21.3771 81.0696 27.2602C74.7663 33.1433 71.6146 40.3233 71.6146 48.8C71.6146 57.2768 74.7663 64.4567 81.0696 70.3398C87.373 76.2229 95.0658 79.1645 104.148 79.1645Z" fill="url(#paint0_linear_154_398)"/>
<path d="M104.16 82.96C99.1012 82.96 94.3432 82.0643 89.8862 80.2728C85.4318 78.4787 81.5563 76.0445 78.2596 72.9701C74.9629 69.8957 72.3534 66.2823 70.4312 62.13C68.5091 57.9777 67.548 53.5381 67.548 48.8114C67.548 44.0847 68.5091 39.6439 70.4312 35.489C72.3507 31.3316 74.9547 27.7144 78.2433 24.6375C81.5319 21.5606 85.4047 19.1251 89.8618 17.3311C94.3188 15.537 99.0768 14.64 104.136 14.64C109.195 14.64 113.953 15.537 118.41 17.3311C122.864 19.1226 126.74 21.5543 130.036 24.6261C133.333 27.698 135.943 31.3126 137.865 35.47C139.787 39.6274 140.748 44.067 140.748 48.7886C140.748 53.5103 139.788 57.9511 137.869 62.111C135.949 66.271 133.341 69.8881 130.045 72.9625C126.748 76.0369 122.876 78.4724 118.43 80.269C113.984 82.0655 109.227 82.9625 104.16 82.96ZM104.148 79.1645C113.23 79.1645 120.923 76.2229 127.226 70.3398C133.53 64.4567 136.681 57.2768 136.681 48.8C136.681 40.3233 133.53 33.1433 127.226 27.2602C120.923 21.3771 113.23 18.4356 104.148 18.4356C95.0658 18.4356 87.373 21.3771 81.0696 27.2602C74.7663 33.1433 71.6146 40.3233 71.6146 48.8C71.6146 57.2768 74.7663 64.4567 81.0696 70.3398C87.373 76.2229 95.0658 79.1645 104.148 79.1645Z" stroke="url(#paint1_linear_154_398)" stroke-width="3"/>
</g>
<g clip-path="url(#clip0_154_398)">
<g filter="url(#filter1_d_154_398)">
<path d="M276.797 82.7452L203.606 104.369L259.105 156.985M267.23 92.8361L255.135 143.641L217.143 107.622" fill="url(#paint2_linear_154_398)"/>
<path d="M276.797 82.7452L203.606 104.369L259.105 156.985M267.23 92.8361L255.135 143.641L217.143 107.622" stroke="url(#paint3_linear_154_398)" stroke-width="2"/>
</g>
</g>
<g clip-path="url(#clip1_154_398)">
<g filter="url(#filter2_d_154_398)">
<path d="M116.585 170.882L170.557 150.806" stroke="url(#paint4_linear_154_398)" stroke-width="6" stroke-linecap="round" stroke-linejoin="round" shape-rendering="crispEdges"/>
</g>
</g>
<g clip-path="url(#clip2_154_398)">
<g filter="url(#filter3_d_154_398)">
<path d="M169.385 258.313C169.541 258.051 169.641 257.759 169.677 257.456C169.712 257.153 169.684 256.845 169.593 256.554C169.502 256.263 169.35 255.994 169.148 255.765C168.945 255.537 168.697 255.353 168.419 255.227L156.355 249.88C156.031 249.732 155.748 249.506 155.531 249.223C155.314 248.939 155.17 248.607 155.112 248.255C155.053 247.903 155.083 247.542 155.197 247.204C155.311 246.866 155.507 246.561 155.766 246.316L187.038 217.234C187.344 216.937 187.731 216.738 188.15 216.661C188.569 216.585 189.002 216.635 189.393 216.805L207.158 224.679C208.546 225.294 208.866 227.13 207.777 228.218L189.072 246.8C188.819 247.047 188.63 247.352 188.521 247.689C188.412 248.025 188.387 248.383 188.447 248.731C188.508 249.08 188.653 249.408 188.869 249.688C189.085 249.968 189.366 250.191 189.687 250.338L200.98 255.344C202.6 256.062 202.689 258.355 201.128 259.234L154.246 285.716C153.858 285.935 153.443 285.502 153.664 285.12L169.385 258.313Z" stroke="url(#paint5_linear_154_398)" stroke-width="6" stroke-linecap="round" stroke-linejoin="round" shape-rendering="crispEdges"/>
</g>
</g>
<g filter="url(#filter4_d_154_398)">
<mask id="path-6-inside-1_154_398" fill="white">
<path d="M85.9994 157.865L69.9577 177.172L3.99999 133.86L20.0418 114.553L85.9994 157.865ZM80.2729 157.089L22.5599 119.191L9.72653 134.637L67.4395 172.535L80.2729 157.089Z"/>
</mask>
<path d="M85.9994 157.865L69.9577 177.172L3.99999 133.86L20.0418 114.553L85.9994 157.865ZM80.2729 157.089L22.5599 119.191L9.72653 134.637L67.4395 172.535L80.2729 157.089Z" fill="url(#paint6_linear_154_398)"/>
<path d="M85.9994 157.865L91.8507 161.707L96.3241 156.323L90.4729 152.481L85.9994 157.865ZM69.9577 177.172L65.4842 182.556L71.3355 186.399L75.8089 181.015L69.9577 177.172ZM3.99999 133.86L-1.85123 130.018L-6.32468 135.402L-0.473451 139.244L3.99999 133.86ZM20.0418 114.553L24.5152 109.169L18.664 105.327L14.1905 110.711L20.0418 114.553ZM80.2729 157.089L86.1241 160.931L90.5976 155.547L84.7464 151.705L80.2729 157.089ZM22.5599 119.191L27.0334 113.807L21.1822 109.964L16.7087 115.348L22.5599 119.191ZM9.72653 134.637L3.8753 130.794L-0.598144 136.178L5.25308 140.021L9.72653 134.637ZM67.4395 172.535L62.966 177.919L68.8173 181.761L73.2907 176.377L67.4395 172.535ZM85.9994 157.865L80.1482 154.023L64.1064 173.33L69.9577 177.172L75.8089 181.015L91.8507 161.707L85.9994 157.865ZM69.9577 177.172L74.4311 171.788L8.47344 128.476L3.99999 133.86L-0.473451 139.244L65.4842 182.556L69.9577 177.172ZM3.99999 133.86L9.85122 137.703L25.893 118.395L20.0418 114.553L14.1905 110.711L-1.85123 130.018L3.99999 133.86ZM20.0418 114.553L15.5683 119.937L81.526 163.249L85.9994 157.865L90.4729 152.481L24.5152 109.169L20.0418 114.553ZM80.2729 157.089L84.7464 151.705L27.0334 113.807L22.5599 119.191L18.0865 124.575L75.7995 162.473L80.2729 157.089ZM22.5599 119.191L16.7087 115.348L3.8753 130.794L9.72653 134.637L15.5778 138.479L28.4112 123.033L22.5599 119.191ZM9.72653 134.637L5.25308 140.021L62.966 177.919L67.4395 172.535L71.9129 167.15L14.2 129.252L9.72653 134.637ZM67.4395 172.535L73.2907 176.377L86.1241 160.931L80.2729 157.089L74.4217 153.246L61.5883 168.692L67.4395 172.535Z" fill="url(#paint7_linear_154_398)" mask="url(#path-6-inside-1_154_398)"/>
</g>
<defs>
<filter id="filter0_d_154_398" x="62.048" y="13.14" width="84.2" height="79.32" filterUnits="userSpaceOnUse" color-interpolation-filters="sRGB">
<feFlood flood-opacity="0" result="BackgroundImageFix"/>
<feColorMatrix in="SourceAlpha" type="matrix" values="0 0 0 0 0 0 0 0 0 0 0 0 0 0 0 0 0 0 127 0" result="hardAlpha"/>
<feOffset dy="4"/>
<feGaussianBlur stdDeviation="2"/>
<feComposite in2="hardAlpha" operator="out"/>
<feColorMatrix type="matrix" values="0 0 0 0 0 0 0 0 0 0 0 0 0 0 0 0 0 0 0.5 0"/>
<feBlend mode="normal" in2="BackgroundImageFix" result="effect1_dropShadow_154_398"/>
<feBlend mode="normal" in="SourceGraphic" in2="effect1_dropShadow_154_398" result="shape"/>
</filter>
<filter id="filter1_d_154_398" x="197.659" y="81.7862" width="83.4213" height="83.9246" filterUnits="userSpaceOnUse" color-interpolation-filters="sRGB">
<feFlood flood-opacity="0" result="BackgroundImageFix"/>
<feColorMatrix in="SourceAlpha" type="matrix" values="0 0 0 0 0 0 0 0 0 0 0 0 0 0 0 0 0 0 127 0" result="hardAlpha"/>
<feOffset dy="4"/>
<feGaussianBlur stdDeviation="2"/>
<feComposite in2="hardAlpha" operator="out"/>
<feColorMatrix type="matrix" values="0 0 0 0 0 0 0 0 0 0 0 0 0 0 0 0 0 0 0.5 0"/>
<feBlend mode="normal" in2="BackgroundImageFix" result="effect1_dropShadow_154_398"/>
<feBlend mode="normal" in="SourceGraphic" in2="effect1_dropShadow_154_398" result="shape"/>
</filter>
<filter id="filter2_d_154_398" x="109.584" y="147.806" width="67.9736" height="34.0773" filterUnits="userSpaceOnUse" color-interpolation-filters="sRGB">
<feFlood flood-opacity="0" result="BackgroundImageFix"/>
<feColorMatrix in="SourceAlpha" type="matrix" values="0 0 0 0 0 0 0 0 0 0 0 0 0 0 0 0 0 0 127 0" result="hardAlpha"/>
<feOffset dy="4"/>
<feGaussianBlur stdDeviation="2"/>
<feComposite in2="hardAlpha" operator="out"/>
<feColorMatrix type="matrix" values="0 0 0 0 0 0 0 0 0 0 0 0 0 0 0 0 0 0 0.5 0"/>
<feBlend mode="normal" in2="BackgroundImageFix" result="effect1_dropShadow_154_398"/>
<feBlend mode="normal" in="SourceGraphic" in2="effect1_dropShadow_154_398" result="shape"/>
</filter>
<filter id="filter3_d_154_398" x="146.602" y="213.626" width="68.8255" height="83.1819" filterUnits="userSpaceOnUse" color-interpolation-filters="sRGB">
<feFlood flood-opacity="0" result="BackgroundImageFix"/>
<feColorMatrix in="SourceAlpha" type="matrix" values="0 0 0 0 0 0 0 0 0 0 0 0 0 0 0 0 0 0 127 0" result="hardAlpha"/>
<feOffset dy="4"/>
<feGaussianBlur stdDeviation="2"/>
<feComposite in2="hardAlpha" operator="out"/>
<feColorMatrix type="matrix" values="0 0 0 0 0 0 0 0 0 0 0 0 0 0 0 0 0 0 0.5 0"/>
<feBlend mode="normal" in2="BackgroundImageFix" result="effect1_dropShadow_154_398"/>
<feBlend mode="normal" in="SourceGraphic" in2="effect1_dropShadow_154_398" result="shape"/>
</filter>
<filter id="filter4_d_154_398" x="0" y="114.553" width="89.9994" height="70.6193" filterUnits="userSpaceOnUse" color-interpolation-filters="sRGB">
<feFlood flood-opacity="0" result="BackgroundImageFix"/>
<feColorMatrix in="SourceAlpha" type="matrix" values="0 0 0 0 0 0 0 0 0 0 0 0 0 0 0 0 0 0 127 0" result="hardAlpha"/>
<feOffset dy="4"/>
<feGaussianBlur stdDeviation="2"/>
<feComposite in2="hardAlpha" operator="out"/>
<feColorMatrix type="matrix" values="0 0 0 0 0 0 0 0 0 0 0 0 0 0 0 0 0 0 0.5 0"/>
<feBlend mode="normal" in2="BackgroundImageFix" result="effect1_dropShadow_154_398"/>
<feBlend mode="normal" in="SourceGraphic" in2="effect1_dropShadow_154_398" result="shape"/>
</filter>
<linearGradient id="paint0_linear_154_398" x1="104.148" y1="14.64" x2="104.148" y2="82.96" gradientUnits="userSpaceOnUse">
<stop stop-color="#FFD000"/>
<stop offset="1" stop-color="#003E85"/>
</linearGradient>
<linearGradient id="paint1_linear_154_398" x1="104.148" y1="14.64" x2="104.148" y2="82.96" gradientUnits="userSpaceOnUse">
<stop stop-color="#FFD000"/>
<stop offset="1" stop-color="#003E85"/>
</linearGradient>
<linearGradient id="paint2_linear_154_398" x1="276.797" y1="82.7452" x2="231.356" y2="130.677" gradientUnits="userSpaceOnUse">
<stop stop-color="#FFD000"/>
<stop offset="1" stop-color="#003E85"/>
</linearGradient>
<linearGradient id="paint3_linear_154_398" x1="276.797" y1="82.7452" x2="231.356" y2="130.677" gradientUnits="userSpaceOnUse">
<stop stop-color="#FFD000"/>
<stop offset="1" stop-color="#003E85"/>
</linearGradient>
<linearGradient id="paint4_linear_154_398" x1="170.731" y1="151.275" x2="116.759" y2="171.351" gradientUnits="userSpaceOnUse">
<stop stop-color="#FFD000"/>
<stop offset="1" stop-color="#003E85"/>
</linearGradient>
<linearGradient id="paint5_linear_154_398" x1="193.693" y1="218.711" x2="162.321" y2="289.488" gradientUnits="userSpaceOnUse">
<stop stop-color="#FFD000"/>
<stop offset="1" stop-color="#003E85"/>
</linearGradient>
<linearGradient id="paint6_linear_154_398" x1="53.0206" y1="136.209" x2="39.3289" y2="157.059" gradientUnits="userSpaceOnUse">
<stop stop-color="#FFD000"/>
<stop offset="1" stop-color="#003E85"/>
</linearGradient>
<linearGradient id="paint7_linear_154_398" x1="53.0206" y1="136.209" x2="39.3289" y2="157.059" gradientUnits="userSpaceOnUse">
<stop stop-color="#FFD000"/>
<stop offset="1" stop-color="#003E85"/>
</linearGradient>
<clipPath id="clip0_154_398">
<rect width="83.4293" height="83.4293" fill="white" transform="translate(251.308 49) rotate(43.4722)"/>
</clipPath>
<clipPath id="clip1_154_398">
<rect width="72" height="72" fill="white" transform="translate(148.564 113) rotate(49.2734)"/>
</clipPath>
<clipPath id="clip2_154_398">
<rect width="103.225" height="103.225" fill="white" transform="translate(151.738 186) rotate(23.9055)"/>
</clipPath>
</defs>
</svg>
