<svg width="289" height="50" viewBox="0 0 289 50" fill="none" xmlns="http://www.w3.org/2000/svg">
<path d="M85.852 38.3051V17.0081H101.817C103.202 17.0081 104.411 17.3077 105.444 17.9071C106.477 18.5064 107.283 19.3434 107.862 20.4181C108.441 21.4721 108.73 22.6914 108.73 24.0761C108.73 25.4607 108.43 26.7007 107.831 27.7961C107.252 28.8707 106.436 29.7077 105.382 30.3071C104.328 30.9064 103.109 31.2061 101.724 31.2061H91.215V38.3051H85.852ZM91.215 26.9591H100.236C101.269 26.9591 102.065 26.7111 102.623 26.2151C103.181 25.7191 103.46 25.0164 103.46 24.1071C103.46 23.5077 103.336 23.0014 103.088 22.5881C102.84 22.1541 102.468 21.8234 101.972 21.5961C101.497 21.3481 100.918 21.2241 100.236 21.2241H91.215V26.9591ZM117.496 38.6771C116.504 38.6771 115.584 38.5944 114.737 38.4291C113.89 38.2844 113.146 38.0364 112.505 37.6851C111.864 37.3131 111.358 36.8171 110.986 36.1971C110.635 35.5771 110.459 34.7917 110.459 33.8411C110.459 32.5391 110.821 31.5161 111.544 30.7721C112.267 30.0074 113.28 29.4597 114.582 29.1291C115.905 28.7984 117.444 28.5917 119.201 28.5091C120.978 28.4057 122.911 28.3541 124.998 28.3541V27.7651C124.998 27.0831 124.833 26.5457 124.502 26.1531C124.171 25.7604 123.665 25.4814 122.983 25.3161C122.322 25.1301 121.454 25.0371 120.379 25.0371C119.573 25.0371 118.829 25.0991 118.147 25.2231C117.486 25.3264 116.959 25.5021 116.566 25.7501C116.173 25.9774 115.977 26.2771 115.977 26.6491V26.9591H111.11C111.089 26.8764 111.069 26.8041 111.048 26.7421C111.048 26.6594 111.048 26.5664 111.048 26.4631C111.048 25.4917 111.41 24.6444 112.133 23.9211C112.856 23.1771 113.931 22.6087 115.357 22.2161C116.804 21.8027 118.591 21.5961 120.72 21.5961C122.704 21.5961 124.368 21.7717 125.711 22.1231C127.075 22.4744 128.108 23.0531 128.811 23.8591C129.514 24.6651 129.865 25.7397 129.865 27.0831V33.9341C129.865 34.3061 129.937 34.6057 130.082 34.8331C130.247 35.0397 130.516 35.1431 130.888 35.1431H132.5V38.1191C132.252 38.2224 131.839 38.3361 131.26 38.4601C130.681 38.6047 130.041 38.6771 129.338 38.6771C128.387 38.6771 127.633 38.5634 127.075 38.3361C126.538 38.1294 126.145 37.8401 125.897 37.4681C125.649 37.0754 125.473 36.6517 125.37 36.1971H125.122C124.543 36.7137 123.851 37.1581 123.045 37.5301C122.26 37.9021 121.402 38.1811 120.472 38.3671C119.542 38.5737 118.55 38.6771 117.496 38.6771ZM118.767 35.2361C119.346 35.2361 119.986 35.1741 120.689 35.0501C121.412 34.9054 122.105 34.7091 122.766 34.4611C123.427 34.1924 123.965 33.8617 124.378 33.4691C124.791 33.0764 124.998 32.6011 124.998 32.0431V31.1751C122.787 31.1751 120.968 31.2577 119.542 31.4231C118.116 31.5884 117.052 31.8467 116.349 32.1981C115.646 32.5494 115.295 33.0454 115.295 33.6861C115.295 34.1201 115.46 34.4507 115.791 34.6781C116.142 34.8847 116.587 35.0294 117.124 35.1121C117.661 35.1947 118.209 35.2361 118.767 35.2361ZM141.921 38.6771C140.66 38.6771 139.617 38.5221 138.79 38.2121C137.984 37.8814 137.385 37.3337 136.992 36.5691C136.599 35.7837 136.403 34.7194 136.403 33.3761V25.5021H133.241V21.9681H136.558L137.519 17.1321H141.239V21.9681H145.734V25.5021H141.239V32.7561C141.239 33.5414 141.384 34.1407 141.673 34.5541C141.983 34.9467 142.634 35.1431 143.626 35.1431H145.734V38.1501C145.445 38.2534 145.062 38.3464 144.587 38.4291C144.132 38.5117 143.657 38.5737 143.161 38.6151C142.686 38.6564 142.272 38.6771 141.921 38.6771ZM149.198 38.3051V15.8611H154.034V24.1381H154.282C154.84 23.4974 155.47 22.9911 156.173 22.6191C156.896 22.2471 157.64 21.9887 158.405 21.8441C159.19 21.6787 159.955 21.5961 160.699 21.5961C162.249 21.5961 163.54 21.8441 164.574 22.3401C165.628 22.8154 166.413 23.5491 166.93 24.5411C167.446 25.5331 167.705 26.7834 167.705 28.2921V38.3051H162.869V29.0671C162.869 28.4264 162.776 27.8787 162.59 27.4241C162.404 26.9487 162.145 26.5664 161.815 26.2771C161.484 25.9877 161.071 25.7811 160.575 25.6571C160.099 25.5124 159.562 25.4401 158.963 25.4401C158.095 25.4401 157.289 25.6261 156.545 25.9981C155.801 26.3494 155.191 26.8454 154.716 27.4861C154.261 28.1061 154.034 28.8397 154.034 29.6871V38.3051H149.198ZM172.616 38.3051V17.0081H180.955L185.326 27.2691C185.491 27.6204 185.677 28.0854 185.884 28.6641C186.111 29.2427 186.338 29.8524 186.566 30.4931C186.814 31.1337 187.031 31.7021 187.217 32.1981H187.434C187.599 31.7434 187.795 31.2164 188.023 30.6171C188.25 30.0177 188.477 29.4184 188.705 28.8191C188.932 28.2197 189.128 27.7134 189.294 27.3001L193.696 17.0081H201.818V38.3051H196.486V26.0911C196.486 25.6984 196.486 25.2644 196.486 24.7891C196.506 24.3137 196.527 23.8487 196.548 23.3941C196.568 22.9394 196.579 22.5364 196.579 22.1851H196.331C196.227 22.5364 196.083 22.9497 195.897 23.4251C195.731 23.9004 195.566 24.3757 195.401 24.8511C195.235 25.3264 195.08 25.7397 194.936 26.0911L189.666 38.3051H184.582L179.312 26.0911C179.105 25.6157 178.909 25.1404 178.723 24.6651C178.537 24.1691 178.371 23.7041 178.227 23.2701C178.103 22.8361 177.989 22.4744 177.886 22.1851H177.638C177.658 22.4537 177.669 22.8051 177.669 23.2391C177.689 23.6731 177.7 24.1381 177.7 24.6341C177.72 25.1301 177.731 25.6157 177.731 26.0911V38.3051H172.616ZM213.039 38.6771C212.047 38.6771 211.127 38.5944 210.28 38.4291C209.433 38.2844 208.689 38.0364 208.048 37.6851C207.407 37.3131 206.901 36.8171 206.529 36.1971C206.178 35.5771 206.002 34.7917 206.002 33.8411C206.002 32.5391 206.364 31.5161 207.087 30.7721C207.81 30.0074 208.823 29.4597 210.125 29.1291C211.448 28.7984 212.987 28.5917 214.744 28.5091C216.521 28.4057 218.454 28.3541 220.541 28.3541V27.7651C220.541 27.0831 220.376 26.5457 220.045 26.1531C219.714 25.7604 219.208 25.4814 218.526 25.3161C217.865 25.1301 216.997 25.0371 215.922 25.0371C215.116 25.0371 214.372 25.0991 213.69 25.2231C213.029 25.3264 212.502 25.5021 212.109 25.7501C211.716 25.9774 211.52 26.2771 211.52 26.6491V26.9591H206.653C206.632 26.8764 206.612 26.8041 206.591 26.7421C206.591 26.6594 206.591 26.5664 206.591 26.4631C206.591 25.4917 206.953 24.6444 207.676 23.9211C208.399 23.1771 209.474 22.6087 210.9 22.2161C212.347 21.8027 214.134 21.5961 216.263 21.5961C218.247 21.5961 219.911 21.7717 221.254 22.1231C222.618 22.4744 223.651 23.0531 224.354 23.8591C225.057 24.6651 225.408 25.7397 225.408 27.0831V33.9341C225.408 34.3061 225.48 34.6057 225.625 34.8331C225.79 35.0397 226.059 35.1431 226.431 35.1431H228.043V38.1191C227.795 38.2224 227.382 38.3361 226.803 38.4601C226.224 38.6047 225.584 38.6771 224.881 38.6771C223.93 38.6771 223.176 38.5634 222.618 38.3361C222.081 38.1294 221.688 37.8401 221.44 37.4681C221.192 37.0754 221.016 36.6517 220.913 36.1971H220.665C220.086 36.7137 219.394 37.1581 218.588 37.5301C217.803 37.9021 216.945 38.1811 216.015 38.3671C215.085 38.5737 214.093 38.6771 213.039 38.6771ZM214.31 35.2361C214.889 35.2361 215.529 35.1741 216.232 35.0501C216.955 34.9054 217.648 34.7091 218.309 34.4611C218.97 34.1924 219.508 33.8617 219.921 33.4691C220.334 33.0764 220.541 32.6011 220.541 32.0431V31.1751C218.33 31.1751 216.511 31.2577 215.085 31.4231C213.659 31.5884 212.595 31.8467 211.892 32.1981C211.189 32.5494 210.838 33.0454 210.838 33.6861C210.838 34.1201 211.003 34.4507 211.334 34.6781C211.685 34.8847 212.13 35.0294 212.667 35.1121C213.204 35.1947 213.752 35.2361 214.31 35.2361ZM237.464 38.6771C236.203 38.6771 235.16 38.5221 234.333 38.2121C233.527 37.8814 232.928 37.3337 232.535 36.5691C232.142 35.7837 231.946 34.7194 231.946 33.3761V25.5021H228.784V21.9681H232.101L233.062 17.1321H236.782V21.9681H241.277V25.5021H236.782V32.7561C236.782 33.5414 236.927 34.1407 237.216 34.5541C237.526 34.9467 238.177 35.1431 239.169 35.1431H241.277V38.1501C240.988 38.2534 240.605 38.3464 240.13 38.4291C239.675 38.5117 239.2 38.5737 238.704 38.6151C238.229 38.6564 237.815 38.6771 237.464 38.6771ZM254.413 38.6771C252.263 38.6771 250.414 38.3671 248.864 37.7471C247.334 37.1064 246.156 36.1557 245.33 34.8951C244.503 33.6137 244.09 32.0224 244.09 30.1211C244.09 28.2197 244.503 26.6387 245.33 25.3781C246.156 24.1174 247.334 23.1771 248.864 22.5571C250.414 21.9164 252.263 21.5961 254.413 21.5961C255.756 21.5961 257.017 21.7407 258.195 22.0301C259.393 22.2987 260.437 22.7224 261.326 23.3011C262.214 23.8591 262.907 24.5617 263.403 25.4091C263.899 26.2564 264.147 27.2484 264.147 28.3851H259.249C259.249 27.6824 259.032 27.0934 258.598 26.6181C258.164 26.1427 257.575 25.7811 256.831 25.5331C256.107 25.2644 255.301 25.1301 254.413 25.1301C253.276 25.1301 252.315 25.3161 251.53 25.6881C250.744 26.0601 250.145 26.5974 249.732 27.3001C249.318 27.9821 249.112 28.8191 249.112 29.8111V30.4311C249.112 31.4024 249.318 32.2394 249.732 32.9421C250.166 33.6447 250.786 34.1924 251.592 34.5851C252.418 34.9571 253.421 35.1431 254.599 35.1431C255.467 35.1431 256.262 35.0087 256.986 34.7401C257.73 34.4507 258.319 34.0581 258.753 33.5621C259.207 33.0661 259.435 32.4977 259.435 31.8571H264.147C264.147 33.0144 263.888 34.0271 263.372 34.8951C262.876 35.7424 262.183 36.4451 261.295 37.0031C260.427 37.5611 259.393 37.9847 258.195 38.2741C257.017 38.5427 255.756 38.6771 254.413 38.6771ZM267.779 38.3051V15.8611H272.615V24.1381H272.863C273.421 23.4974 274.051 22.9911 274.754 22.6191C275.477 22.2471 276.221 21.9887 276.986 21.8441C277.771 21.6787 278.536 21.5961 279.28 21.5961C280.83 21.5961 282.121 21.8441 283.155 22.3401C284.209 22.8154 284.994 23.5491 285.511 24.5411C286.027 25.5331 286.286 26.7834 286.286 28.2921V38.3051H281.45V29.0671C281.45 28.4264 281.357 27.8787 281.171 27.4241C280.985 26.9487 280.726 26.5664 280.396 26.2771C280.065 25.9877 279.652 25.7811 279.156 25.6571C278.68 25.5124 278.143 25.4401 277.544 25.4401C276.676 25.4401 275.87 25.6261 275.126 25.9981C274.382 26.3494 273.772 26.8454 273.297 27.4861C272.842 28.1061 272.615 28.8397 272.615 29.6871V38.3051H267.779Z" fill="#003E85"/>
<ellipse cx="50" cy="25.8051" rx="23" ry="23.5" fill="#FFD000"/>
<circle cx="50" cy="26.3051" r="20" fill="#FFF0B0"/>
<circle cx="50" cy="26.3051" r="17" fill="#FFD000"/>
<circle cx="50" cy="26.3051" r="14" fill="#FFF0B0"/>
<circle cx="50" cy="26.3051" r="11" fill="#FFD000"/>
<circle cx="50" cy="26.3051" r="8" fill="#FFF0B0"/>
<circle cx="50" cy="26.3051" r="5" fill="#FFD000"/>
<g filter="url(#filter0_d_37_346)">
<path fill-rule="evenodd" clip-rule="evenodd" d="M17.5369 14.3065L10.3355 17.7912L9.46451 15.9912L15.7659 12.9419L12.7167 6.64058L14.5167 5.76955L18.0014 12.9709C18.1169 13.2096 18.1328 13.4844 18.0457 13.7349C17.9586 13.9853 17.7756 14.1909 17.5369 14.3065Z" fill="#003E85"/>
<path fill-rule="evenodd" clip-rule="evenodd" d="M12.5369 12.3065L5.33554 15.7912L4.46451 13.9912L10.7659 10.9419L7.71665 4.64058L9.51668 3.76955L13.0014 10.9709C13.1169 11.2096 13.1328 11.4844 13.0457 11.7349C12.9586 11.9853 12.7756 12.1909 12.5369 12.3065Z" fill="#003E85"/>
<path fill-rule="evenodd" clip-rule="evenodd" d="M22.5369 16.3065L15.3355 19.7912L14.4645 17.9912L20.7659 14.9419L17.7167 8.64058L19.5167 7.76955L23.0014 14.9709C23.1169 15.2096 23.1328 15.4844 23.0457 15.7349C22.9586 15.9853 22.7756 16.1909 22.5369 16.3065Z" fill="#003E85"/>
</g>
<g filter="url(#filter1_d_37_346)">
<path fill-rule="evenodd" clip-rule="evenodd" d="M21.7368 15.2378C21.6327 15.485 21.6425 15.7682 21.764 16.0251C21.8854 16.282 22.1086 16.4915 22.3845 16.6076L46.9141 26.9328L37.8996 30.0423C37.6307 30.1351 37.421 30.3263 37.3168 30.5739C37.2127 30.8214 37.2224 31.1049 37.3441 31.3622C37.4657 31.6194 37.6892 31.8292 37.9653 31.9455C38.2415 32.0617 38.5478 32.0749 38.8167 31.982L50.2756 28.0274C50.4089 27.9816 50.529 27.911 50.6291 27.8199C50.7292 27.7287 50.8073 27.6187 50.8589 27.4961C50.9105 27.3734 50.9346 27.2407 50.9298 27.1054C50.9251 26.9701 50.8915 26.8349 50.8311 26.7075L45.6498 15.7486C45.5896 15.6212 45.5038 15.5041 45.3972 15.404C45.2906 15.304 45.1653 15.2228 45.0286 15.1653C44.7524 15.049 44.4461 15.0359 44.1772 15.1287C43.9082 15.2215 43.6986 15.4127 43.5944 15.6602C43.4902 15.9077 43.5 16.1913 43.6216 16.4485L47.6988 25.0686L23.1691 14.7434C22.8933 14.6273 22.5875 14.6142 22.3188 14.7069C22.0502 14.7996 21.8408 14.9906 21.7368 15.2378Z" fill="url(#paint0_linear_37_346)"/>
</g>
<defs>
<filter id="filter0_d_37_346" x="0.464478" y="3.76953" width="26.6367" height="24.0217" filterUnits="userSpaceOnUse" color-interpolation-filters="sRGB">
<feFlood flood-opacity="0" result="BackgroundImageFix"/>
<feColorMatrix in="SourceAlpha" type="matrix" values="0 0 0 0 0 0 0 0 0 0 0 0 0 0 0 0 0 0 127 0" result="hardAlpha"/>
<feOffset dy="4"/>
<feGaussianBlur stdDeviation="2"/>
<feComposite in2="hardAlpha" operator="out"/>
<feColorMatrix type="matrix" values="0 0 0 0 0 0 0 0 0 0 0 0 0 0 0 0 0 0 0.5 0"/>
<feBlend mode="normal" in2="BackgroundImageFix" result="effect1_dropShadow_37_346"/>
<feBlend mode="normal" in="SourceGraphic" in2="effect1_dropShadow_37_346" result="shape"/>
</filter>
<filter id="filter1_d_37_346" x="17.6653" y="14.6458" width="37.2651" height="25.3975" filterUnits="userSpaceOnUse" color-interpolation-filters="sRGB">
<feFlood flood-opacity="0" result="BackgroundImageFix"/>
<feColorMatrix in="SourceAlpha" type="matrix" values="0 0 0 0 0 0 0 0 0 0 0 0 0 0 0 0 0 0 127 0" result="hardAlpha"/>
<feOffset dy="4"/>
<feGaussianBlur stdDeviation="2"/>
<feComposite in2="hardAlpha" operator="out"/>
<feColorMatrix type="matrix" values="0 0 0 0 0 0 0 0 0 0 0 0 0 0 0 0 0 0 0.5 0"/>
<feBlend mode="normal" in2="BackgroundImageFix" result="effect1_dropShadow_37_346"/>
<feBlend mode="normal" in="SourceGraphic" in2="effect1_dropShadow_37_346" result="shape"/>
</filter>
<linearGradient id="paint0_linear_37_346" x1="21.7955" y1="16.952" x2="51.9385" y2="25.7074" gradientUnits="userSpaceOnUse">
<stop offset="0.471154" stop-color="#003E85"/>
<stop offset="1" stop-color="#E6ECF3"/>
</linearGradient>
</defs>
</svg>
