<svg width="98" height="98" viewBox="0 0 98 98" fill="none" xmlns="http://www.w3.org/2000/svg">
<g filter="url(#filter0_di_182_584)">
<circle cx="49" cy="45" r="45" fill="#09FF29"/>
</g>
<path d="M42.3639 56.833L65.3827 25.1225C65.9259 24.3742 66.5596 24 67.2839 24C68.0082 24 68.642 24.3742 69.1852 25.1225C69.7284 25.8708 70 26.7601 70 27.7903C70 28.8205 69.7284 29.7085 69.1852 30.4543L44.2651 64.8775C43.7219 65.6258 43.0882 66 42.3639 66C41.6396 66 41.0058 65.6258 40.4626 64.8775L28.7835 48.7884C28.2403 48.0401 27.9795 47.1521 28.0013 46.1244C28.023 45.0967 28.3064 44.2074 28.8514 43.4566C29.3964 42.7057 30.0419 42.3316 30.788 42.3341C31.534 42.3366 32.1786 42.7107 32.7218 43.4566L42.3639 56.833Z" fill="white"/>
<defs>
<filter id="filter0_di_182_584" x="0" y="0" width="98" height="98" filterUnits="userSpaceOnUse" color-interpolation-filters="sRGB">
<feFlood flood-opacity="0" result="BackgroundImageFix"/>
<feColorMatrix in="SourceAlpha" type="matrix" values="0 0 0 0 0 0 0 0 0 0 0 0 0 0 0 0 0 0 127 0" result="hardAlpha"/>
<feOffset dy="4"/>
<feGaussianBlur stdDeviation="2"/>
<feComposite in2="hardAlpha" operator="out"/>
<feColorMatrix type="matrix" values="0 0 0 0 0 0 0 0 0 0 0 0 0 0 0 0 0 0 0.5 0"/>
<feBlend mode="normal" in2="BackgroundImageFix" result="effect1_dropShadow_182_584"/>
<feBlend mode="normal" in="SourceGraphic" in2="effect1_dropShadow_182_584" result="shape"/>
<feColorMatrix in="SourceAlpha" type="matrix" values="0 0 0 0 0 0 0 0 0 0 0 0 0 0 0 0 0 0 127 0" result="hardAlpha"/>
<feOffset dy="4"/>
<feGaussianBlur stdDeviation="2"/>
<feComposite in2="hardAlpha" operator="arithmetic" k2="-1" k3="1"/>
<feColorMatrix type="matrix" values="0 0 0 0 0 0 0 0 0 0 0 0 0 0 0 0 0 0 0.25 0"/>
<feBlend mode="normal" in2="shape" result="effect2_innerShadow_182_584"/>
</filter>
</defs>
</svg>
