<svg width="312" height="299" viewBox="0 0 312 299" fill="none" xmlns="http://www.w3.org/2000/svg">
<g filter="url(#filter0_d_154_408)">
<path d="M207.693 82.96C212.752 82.96 217.51 82.0643 221.967 80.2728C226.421 78.4787 230.297 76.0445 233.593 72.9701C236.89 69.8957 239.499 66.2823 241.422 62.13C243.344 57.9777 244.305 53.5381 244.305 48.8114C244.305 44.0847 243.344 39.6439 241.422 35.489C239.502 31.3316 236.898 27.7144 233.609 24.6375C230.321 21.5606 226.448 19.1251 221.991 17.3311C217.534 15.537 212.776 14.64 207.717 14.64C202.658 14.64 197.9 15.537 193.443 17.3311C188.989 19.1226 185.113 21.5543 181.816 24.6261C178.52 27.698 175.91 31.3126 173.988 35.47C172.066 39.6274 171.105 44.067 171.105 48.7886C171.105 53.5103 172.065 57.9511 173.984 62.111C175.903 66.271 178.512 69.8881 181.808 72.9625C185.105 76.0369 188.976 78.4724 193.423 80.269C197.869 82.0655 202.626 82.9625 207.693 82.96ZM207.705 79.1645C198.623 79.1645 190.93 76.2229 184.626 70.3398C178.323 64.4567 175.171 57.2768 175.171 48.8C175.171 40.3233 178.323 33.1433 184.626 27.2602C190.93 21.3771 198.623 18.4356 207.705 18.4356C216.787 18.4356 224.48 21.3771 230.783 27.2602C237.086 33.1433 240.238 40.3233 240.238 48.8C240.238 57.2768 237.086 64.4567 230.783 70.3398C224.48 76.2229 216.787 79.1645 207.705 79.1645Z" fill="url(#paint0_linear_154_408)"/>
<path d="M207.693 82.96C212.752 82.96 217.51 82.0643 221.967 80.2728C226.421 78.4787 230.297 76.0445 233.593 72.9701C236.89 69.8957 239.499 66.2823 241.422 62.13C243.344 57.9777 244.305 53.5381 244.305 48.8114C244.305 44.0847 243.344 39.6439 241.422 35.489C239.502 31.3316 236.898 27.7144 233.609 24.6375C230.321 21.5606 226.448 19.1251 221.991 17.3311C217.534 15.537 212.776 14.64 207.717 14.64C202.658 14.64 197.9 15.537 193.443 17.3311C188.989 19.1226 185.113 21.5543 181.816 24.6261C178.52 27.698 175.91 31.3126 173.988 35.47C172.066 39.6274 171.105 44.067 171.105 48.7886C171.105 53.5103 172.065 57.9511 173.984 62.111C175.903 66.271 178.512 69.8881 181.808 72.9625C185.105 76.0369 188.976 78.4724 193.423 80.269C197.869 82.0655 202.626 82.9625 207.693 82.96ZM207.705 79.1645C198.623 79.1645 190.93 76.2229 184.626 70.3398C178.323 64.4567 175.171 57.2768 175.171 48.8C175.171 40.3233 178.323 33.1433 184.626 27.2602C190.93 21.3771 198.623 18.4356 207.705 18.4356C216.787 18.4356 224.48 21.3771 230.783 27.2602C237.086 33.1433 240.238 40.3233 240.238 48.8C240.238 57.2768 237.086 64.4567 230.783 70.3398C224.48 76.2229 216.787 79.1645 207.705 79.1645Z" stroke="url(#paint1_linear_154_408)" stroke-width="3"/>
</g>
<g clip-path="url(#clip0_154_408)">
<g filter="url(#filter1_d_154_408)">
<path d="M35.0559 82.7452L108.247 104.369L52.7473 156.985M44.6225 92.8361L56.7178 143.641L94.71 107.622" fill="url(#paint2_linear_154_408)"/>
<path d="M35.0559 82.7452L108.247 104.369L52.7473 156.985M44.6225 92.8361L56.7178 143.641L94.71 107.622" stroke="url(#paint3_linear_154_408)" stroke-width="2"/>
</g>
</g>
<g clip-path="url(#clip1_154_408)">
<g filter="url(#filter2_d_154_408)">
<path d="M190.956 170.882L136.984 150.806" stroke="url(#paint4_linear_154_408)" stroke-width="6" stroke-linecap="round" stroke-linejoin="round" shape-rendering="crispEdges"/>
</g>
</g>
<g clip-path="url(#clip2_154_408)">
<g filter="url(#filter3_d_154_408)">
<path d="M142.468 258.313C142.311 258.051 142.212 257.759 142.176 257.456C142.14 257.153 142.169 256.845 142.26 256.554C142.351 256.263 142.503 255.994 142.705 255.765C142.907 255.537 143.156 255.353 143.434 255.227L155.497 249.88C155.822 249.732 156.105 249.506 156.322 249.223C156.539 248.939 156.683 248.607 156.741 248.255C156.799 247.903 156.77 247.542 156.656 247.204C156.542 246.866 156.346 246.561 156.086 246.316L124.814 217.234C124.509 216.937 124.122 216.738 123.702 216.661C123.283 216.585 122.851 216.635 122.46 216.805L104.695 224.679C103.307 225.294 102.987 227.13 104.076 228.218L122.781 246.8C123.034 247.047 123.223 247.352 123.332 247.689C123.441 248.025 123.466 248.383 123.405 248.731C123.345 249.08 123.2 249.408 122.984 249.688C122.768 249.968 122.487 250.191 122.166 250.338L110.873 255.344C109.253 256.062 109.163 258.355 110.725 259.234L157.607 285.716C157.995 285.935 158.41 285.502 158.189 285.12L142.468 258.313Z" stroke="url(#paint5_linear_154_408)" stroke-width="6" stroke-linecap="round" stroke-linejoin="round" shape-rendering="crispEdges"/>
</g>
</g>
<g filter="url(#filter4_d_154_408)">
<mask id="path-6-inside-1_154_408" fill="white">
<path d="M225.853 157.865L241.895 177.172L307.853 133.86L291.811 114.553L225.853 157.865ZM231.58 157.089L289.293 119.191L302.126 134.637L244.413 172.535L231.58 157.089Z"/>
</mask>
<path d="M225.853 157.865L241.895 177.172L307.853 133.86L291.811 114.553L225.853 157.865ZM231.58 157.089L289.293 119.191L302.126 134.637L244.413 172.535L231.58 157.089Z" fill="url(#paint6_linear_154_408)"/>
<path d="M225.853 157.865L220.002 161.707L215.529 156.323L221.38 152.481L225.853 157.865ZM241.895 177.172L246.369 182.556L240.517 186.399L236.044 181.015L241.895 177.172ZM307.853 133.86L313.704 130.018L318.177 135.402L312.326 139.244L307.853 133.86ZM291.811 114.553L287.338 109.169L293.189 105.327L297.662 110.711L291.811 114.553ZM231.58 157.089L225.729 160.931L221.255 155.547L227.106 151.705L231.58 157.089ZM289.293 119.191L284.819 113.807L290.671 109.964L295.144 115.348L289.293 119.191ZM302.126 134.637L307.977 130.794L312.451 136.178L306.6 140.021L302.126 134.637ZM244.413 172.535L248.887 177.919L243.036 181.761L238.562 176.377L244.413 172.535ZM225.853 157.865L231.705 154.023L247.746 173.33L241.895 177.172L236.044 181.015L220.002 161.707L225.853 157.865ZM241.895 177.172L237.422 171.788L303.379 128.476L307.853 133.86L312.326 139.244L246.369 182.556L241.895 177.172ZM307.853 133.86L302.002 137.703L285.96 118.395L291.811 114.553L297.662 110.711L313.704 130.018L307.853 133.86ZM291.811 114.553L296.284 119.937L230.327 163.249L225.853 157.865L221.38 152.481L287.338 109.169L291.811 114.553ZM231.58 157.089L227.106 151.705L284.819 113.807L289.293 119.191L293.766 124.575L236.053 162.473L231.58 157.089ZM289.293 119.191L295.144 115.348L307.977 130.794L302.126 134.637L296.275 138.479L283.442 123.033L289.293 119.191ZM302.126 134.637L306.6 140.021L248.887 177.919L244.413 172.535L239.94 167.15L297.653 129.252L302.126 134.637ZM244.413 172.535L238.562 176.377L225.729 160.931L231.58 157.089L237.431 153.246L250.265 168.692L244.413 172.535Z" fill="url(#paint7_linear_154_408)" mask="url(#path-6-inside-1_154_408)"/>
</g>
<defs>
<filter id="filter0_d_154_408" x="165.605" y="13.14" width="84.2" height="79.32" filterUnits="userSpaceOnUse" color-interpolation-filters="sRGB">
<feFlood flood-opacity="0" result="BackgroundImageFix"/>
<feColorMatrix in="SourceAlpha" type="matrix" values="0 0 0 0 0 0 0 0 0 0 0 0 0 0 0 0 0 0 127 0" result="hardAlpha"/>
<feOffset dy="4"/>
<feGaussianBlur stdDeviation="2"/>
<feComposite in2="hardAlpha" operator="out"/>
<feColorMatrix type="matrix" values="0 0 0 0 0 0 0 0 0 0 0 0 0 0 0 0 0 0 0.5 0"/>
<feBlend mode="normal" in2="BackgroundImageFix" result="effect1_dropShadow_154_408"/>
<feBlend mode="normal" in="SourceGraphic" in2="effect1_dropShadow_154_408" result="shape"/>
</filter>
<filter id="filter1_d_154_408" x="30.7725" y="81.7862" width="83.4213" height="83.9246" filterUnits="userSpaceOnUse" color-interpolation-filters="sRGB">
<feFlood flood-opacity="0" result="BackgroundImageFix"/>
<feColorMatrix in="SourceAlpha" type="matrix" values="0 0 0 0 0 0 0 0 0 0 0 0 0 0 0 0 0 0 127 0" result="hardAlpha"/>
<feOffset dy="4"/>
<feGaussianBlur stdDeviation="2"/>
<feComposite in2="hardAlpha" operator="out"/>
<feColorMatrix type="matrix" values="0 0 0 0 0 0 0 0 0 0 0 0 0 0 0 0 0 0 0.5 0"/>
<feBlend mode="normal" in2="BackgroundImageFix" result="effect1_dropShadow_154_408"/>
<feBlend mode="normal" in="SourceGraphic" in2="effect1_dropShadow_154_408" result="shape"/>
</filter>
<filter id="filter2_d_154_408" x="129.983" y="147.806" width="67.9736" height="34.0773" filterUnits="userSpaceOnUse" color-interpolation-filters="sRGB">
<feFlood flood-opacity="0" result="BackgroundImageFix"/>
<feColorMatrix in="SourceAlpha" type="matrix" values="0 0 0 0 0 0 0 0 0 0 0 0 0 0 0 0 0 0 127 0" result="hardAlpha"/>
<feOffset dy="4"/>
<feGaussianBlur stdDeviation="2"/>
<feComposite in2="hardAlpha" operator="out"/>
<feColorMatrix type="matrix" values="0 0 0 0 0 0 0 0 0 0 0 0 0 0 0 0 0 0 0.5 0"/>
<feBlend mode="normal" in2="BackgroundImageFix" result="effect1_dropShadow_154_408"/>
<feBlend mode="normal" in="SourceGraphic" in2="effect1_dropShadow_154_408" result="shape"/>
</filter>
<filter id="filter3_d_154_408" x="96.4257" y="213.626" width="68.8255" height="83.1819" filterUnits="userSpaceOnUse" color-interpolation-filters="sRGB">
<feFlood flood-opacity="0" result="BackgroundImageFix"/>
<feColorMatrix in="SourceAlpha" type="matrix" values="0 0 0 0 0 0 0 0 0 0 0 0 0 0 0 0 0 0 127 0" result="hardAlpha"/>
<feOffset dy="4"/>
<feGaussianBlur stdDeviation="2"/>
<feComposite in2="hardAlpha" operator="out"/>
<feColorMatrix type="matrix" values="0 0 0 0 0 0 0 0 0 0 0 0 0 0 0 0 0 0 0.5 0"/>
<feBlend mode="normal" in2="BackgroundImageFix" result="effect1_dropShadow_154_408"/>
<feBlend mode="normal" in="SourceGraphic" in2="effect1_dropShadow_154_408" result="shape"/>
</filter>
<filter id="filter4_d_154_408" x="221.853" y="114.553" width="89.9994" height="70.6193" filterUnits="userSpaceOnUse" color-interpolation-filters="sRGB">
<feFlood flood-opacity="0" result="BackgroundImageFix"/>
<feColorMatrix in="SourceAlpha" type="matrix" values="0 0 0 0 0 0 0 0 0 0 0 0 0 0 0 0 0 0 127 0" result="hardAlpha"/>
<feOffset dy="4"/>
<feGaussianBlur stdDeviation="2"/>
<feComposite in2="hardAlpha" operator="out"/>
<feColorMatrix type="matrix" values="0 0 0 0 0 0 0 0 0 0 0 0 0 0 0 0 0 0 0.5 0"/>
<feBlend mode="normal" in2="BackgroundImageFix" result="effect1_dropShadow_154_408"/>
<feBlend mode="normal" in="SourceGraphic" in2="effect1_dropShadow_154_408" result="shape"/>
</filter>
<linearGradient id="paint0_linear_154_408" x1="207.705" y1="14.64" x2="207.705" y2="82.96" gradientUnits="userSpaceOnUse">
<stop stop-color="#FFD000"/>
<stop offset="1" stop-color="#003E85"/>
</linearGradient>
<linearGradient id="paint1_linear_154_408" x1="207.705" y1="14.64" x2="207.705" y2="82.96" gradientUnits="userSpaceOnUse">
<stop stop-color="#FFD000"/>
<stop offset="1" stop-color="#003E85"/>
</linearGradient>
<linearGradient id="paint2_linear_154_408" x1="35.0559" y1="82.7452" x2="80.4972" y2="130.677" gradientUnits="userSpaceOnUse">
<stop stop-color="#FFD000"/>
<stop offset="1" stop-color="#003E85"/>
</linearGradient>
<linearGradient id="paint3_linear_154_408" x1="35.0559" y1="82.7452" x2="80.4972" y2="130.677" gradientUnits="userSpaceOnUse">
<stop stop-color="#FFD000"/>
<stop offset="1" stop-color="#003E85"/>
</linearGradient>
<linearGradient id="paint4_linear_154_408" x1="136.809" y1="151.275" x2="190.781" y2="171.351" gradientUnits="userSpaceOnUse">
<stop stop-color="#FFD000"/>
<stop offset="1" stop-color="#003E85"/>
</linearGradient>
<linearGradient id="paint5_linear_154_408" x1="118.159" y1="218.711" x2="149.532" y2="289.488" gradientUnits="userSpaceOnUse">
<stop stop-color="#FFD000"/>
<stop offset="1" stop-color="#003E85"/>
</linearGradient>
<linearGradient id="paint6_linear_154_408" x1="258.832" y1="136.209" x2="272.524" y2="157.059" gradientUnits="userSpaceOnUse">
<stop stop-color="#FFD000"/>
<stop offset="1" stop-color="#003E85"/>
</linearGradient>
<linearGradient id="paint7_linear_154_408" x1="258.832" y1="136.209" x2="272.524" y2="157.059" gradientUnits="userSpaceOnUse">
<stop stop-color="#FFD000"/>
<stop offset="1" stop-color="#003E85"/>
</linearGradient>
<clipPath id="clip0_154_408">
<rect width="83.4293" height="83.4293" fill="white" transform="matrix(-0.725708 0.688003 0.688003 0.725708 60.5452 49)"/>
</clipPath>
<clipPath id="clip1_154_408">
<rect width="72" height="72" fill="white" transform="matrix(-0.65245 0.757832 0.757832 0.65245 158.976 113)"/>
</clipPath>
<clipPath id="clip2_154_408">
<rect width="103.225" height="103.225" fill="white" transform="matrix(-0.914215 0.405229 0.405229 0.914215 160.115 186)"/>
</clipPath>
</defs>
</svg>
