<svg width="227" height="298" viewBox="0 0 227 298" fill="none" xmlns="http://www.w3.org/2000/svg">
<g filter="url(#filter0_d_191_1726)">
<path d="M104.159 57.96C99.1001 57.96 94.3421 57.0642 89.8851 55.2727C85.4307 53.4787 81.5552 51.0445 78.2585 47.9701C74.9618 44.8957 72.3523 41.2823 70.4301 37.13C68.508 32.9776 67.5469 28.5381 67.5469 23.8114C67.5469 19.0847 68.508 14.6439 70.4301 10.489C72.3496 6.33159 74.9536 2.71442 78.2422 -0.362509C81.5308 -3.43944 85.4036 -5.87492 89.8607 -7.66895C94.3177 -9.46298 99.0757 -10.36 104.135 -10.36C109.194 -10.36 113.952 -9.46298 118.409 -7.66895C122.863 -5.87745 126.739 -3.44576 130.035 -0.373895C133.332 2.69798 135.941 6.31261 137.864 10.47C139.786 14.6274 140.747 19.0669 140.747 23.7886C140.747 28.5103 139.787 32.9511 137.868 37.111C135.948 41.2709 133.34 44.8881 130.043 47.9625C126.747 51.0369 122.875 53.4724 118.429 55.2689C113.983 57.0655 109.226 57.9625 104.159 57.96ZM104.147 54.1644C113.229 54.1644 120.922 51.2229 127.225 45.3398C133.529 39.4567 136.68 32.2767 136.68 23.8C136.68 15.3233 133.529 8.14333 127.225 2.26022C120.922 -3.62289 113.229 -6.56445 104.147 -6.56445C95.0647 -6.56445 87.3719 -3.62289 81.0685 2.26022C74.7652 8.14333 71.6135 15.3233 71.6135 23.8C71.6135 32.2767 74.7652 39.4567 81.0685 45.3398C87.3719 51.2229 95.0647 54.1644 104.147 54.1644Z" fill="url(#paint0_linear_191_1726)"/>
<path d="M104.159 57.96C99.1001 57.96 94.3421 57.0642 89.8851 55.2727C85.4307 53.4787 81.5552 51.0445 78.2585 47.9701C74.9618 44.8957 72.3523 41.2823 70.4301 37.13C68.508 32.9776 67.5469 28.5381 67.5469 23.8114C67.5469 19.0847 68.508 14.6439 70.4301 10.489C72.3496 6.33159 74.9536 2.71442 78.2422 -0.362509C81.5308 -3.43944 85.4036 -5.87492 89.8607 -7.66895C94.3177 -9.46298 99.0757 -10.36 104.135 -10.36C109.194 -10.36 113.952 -9.46298 118.409 -7.66895C122.863 -5.87745 126.739 -3.44576 130.035 -0.373895C133.332 2.69798 135.941 6.31261 137.864 10.47C139.786 14.6274 140.747 19.0669 140.747 23.7886C140.747 28.5103 139.787 32.9511 137.868 37.111C135.948 41.2709 133.34 44.8881 130.043 47.9625C126.747 51.0369 122.875 53.4724 118.429 55.2689C113.983 57.0655 109.226 57.9625 104.159 57.96ZM104.147 54.1644C113.229 54.1644 120.922 51.2229 127.225 45.3398C133.529 39.4567 136.68 32.2767 136.68 23.8C136.68 15.3233 133.529 8.14333 127.225 2.26022C120.922 -3.62289 113.229 -6.56445 104.147 -6.56445C95.0647 -6.56445 87.3719 -3.62289 81.0685 2.26022C74.7652 8.14333 71.6135 15.3233 71.6135 23.8C71.6135 32.2767 74.7652 39.4567 81.0685 45.3398C87.3719 51.2229 95.0647 54.1644 104.147 54.1644Z" stroke="url(#paint1_linear_191_1726)" stroke-width="3"/>
</g>
<g clip-path="url(#clip0_191_1726)">
<g filter="url(#filter1_d_191_1726)">
<path d="M276.796 57.7452L203.605 79.3688L259.104 131.985M267.229 67.8361L255.134 118.641L217.142 82.6223" fill="url(#paint2_linear_191_1726)"/>
<path d="M276.796 57.7452L203.605 79.3688L259.104 131.985M267.229 67.8361L255.134 118.641L217.142 82.6223" stroke="url(#paint3_linear_191_1726)" stroke-width="2"/>
</g>
</g>
<g clip-path="url(#clip1_191_1726)">
<g filter="url(#filter2_d_191_1726)">
<path d="M116.585 145.882L170.557 125.806" stroke="url(#paint4_linear_191_1726)" stroke-width="6" stroke-linecap="round" stroke-linejoin="round" shape-rendering="crispEdges"/>
</g>
</g>
<g clip-path="url(#clip2_191_1726)">
<g filter="url(#filter3_d_191_1726)">
<path d="M169.384 233.313C169.541 233.051 169.64 232.759 169.676 232.456C169.712 232.153 169.684 231.845 169.592 231.554C169.501 231.263 169.35 230.994 169.147 230.765C168.945 230.537 168.697 230.353 168.419 230.227L156.355 224.88C156.03 224.732 155.747 224.506 155.53 224.223C155.313 223.939 155.17 223.607 155.111 223.255C155.053 222.903 155.082 222.542 155.197 222.204C155.311 221.866 155.506 221.561 155.766 221.316L187.038 192.234C187.344 191.937 187.731 191.738 188.15 191.661C188.569 191.585 189.001 191.635 189.392 191.805L207.157 199.679C208.546 200.294 208.866 202.13 207.776 203.218L189.072 221.8C188.819 222.047 188.63 222.352 188.521 222.689C188.412 223.025 188.387 223.383 188.447 223.731C188.508 224.08 188.652 224.408 188.868 224.688C189.084 224.968 189.365 225.191 189.687 225.338L200.98 230.344C202.6 231.062 202.689 233.355 201.128 234.234L154.246 260.716C153.857 260.935 153.442 260.502 153.663 260.12L169.384 233.313Z" stroke="url(#paint5_linear_191_1726)" stroke-width="6" stroke-linecap="round" stroke-linejoin="round" shape-rendering="crispEdges"/>
</g>
</g>
<g filter="url(#filter4_d_191_1726)">
<mask id="path-6-inside-1_191_1726" fill="white">
<path d="M85.9987 132.865L69.9569 152.172L3.99925 108.86L20.041 89.553L85.9987 132.865ZM80.2722 132.089L22.5592 94.1907L9.72578 109.637L67.4387 147.535L80.2722 132.089Z"/>
</mask>
<path d="M85.9987 132.865L69.9569 152.172L3.99925 108.86L20.041 89.553L85.9987 132.865ZM80.2722 132.089L22.5592 94.1907L9.72578 109.637L67.4387 147.535L80.2722 132.089Z" fill="url(#paint6_linear_191_1726)"/>
<path d="M85.9987 132.865L91.8499 136.707L96.3234 131.323L90.4721 127.481L85.9987 132.865ZM69.9569 152.172L65.4835 157.556L71.3347 161.399L75.8082 156.015L69.9569 152.172ZM3.99925 108.86L-1.85198 105.018L-6.32542 110.402L-0.474199 114.244L3.99925 108.86ZM20.041 89.553L24.5145 84.1689L18.6632 80.3266L14.1898 85.7107L20.041 89.553ZM80.2722 132.089L86.1234 135.931L90.5968 130.547L84.7456 126.705L80.2722 132.089ZM22.5592 94.1907L27.0326 88.8066L21.1814 84.9643L16.708 90.3484L22.5592 94.1907ZM9.72578 109.637L3.87455 105.794L-0.598892 111.178L5.25233 115.021L9.72578 109.637ZM67.4387 147.535L62.9653 152.919L68.8165 156.761L73.29 151.377L67.4387 147.535ZM85.9987 132.865L80.1475 129.023L64.1057 148.33L69.9569 152.172L75.8082 156.015L91.8499 136.707L85.9987 132.865ZM69.9569 152.172L74.4304 146.788L8.47269 103.476L3.99925 108.86L-0.474199 114.244L65.4835 157.556L69.9569 152.172ZM3.99925 108.86L9.85047 112.703L25.8922 93.3953L20.041 89.553L14.1898 85.7107L-1.85198 105.018L3.99925 108.86ZM20.041 89.553L15.5676 94.937L81.5252 138.249L85.9987 132.865L90.4721 127.481L24.5145 84.1689L20.041 89.553ZM80.2722 132.089L84.7456 126.705L27.0326 88.8066L22.5592 94.1907L18.0857 99.5748L75.7987 137.473L80.2722 132.089ZM22.5592 94.1907L16.708 90.3484L3.87455 105.794L9.72578 109.637L15.577 113.479L28.4104 98.033L22.5592 94.1907ZM9.72578 109.637L5.25233 115.021L62.9653 152.919L67.4387 147.535L71.9122 142.15L14.1992 104.252L9.72578 109.637ZM67.4387 147.535L73.29 151.377L86.1234 135.931L80.2722 132.089L74.4209 128.246L61.5875 143.692L67.4387 147.535Z" fill="url(#paint7_linear_191_1726)" mask="url(#path-6-inside-1_191_1726)"/>
</g>
<defs>
<filter id="filter0_d_191_1726" x="62.0469" y="-11.86" width="84.2002" height="79.32" filterUnits="userSpaceOnUse" color-interpolation-filters="sRGB">
<feFlood flood-opacity="0" result="BackgroundImageFix"/>
<feColorMatrix in="SourceAlpha" type="matrix" values="0 0 0 0 0 0 0 0 0 0 0 0 0 0 0 0 0 0 127 0" result="hardAlpha"/>
<feOffset dy="4"/>
<feGaussianBlur stdDeviation="2"/>
<feComposite in2="hardAlpha" operator="out"/>
<feColorMatrix type="matrix" values="0 0 0 0 0 0 0 0 0 0 0 0 0 0 0 0 0 0 0.5 0"/>
<feBlend mode="normal" in2="BackgroundImageFix" result="effect1_dropShadow_191_1726"/>
<feBlend mode="normal" in="SourceGraphic" in2="effect1_dropShadow_191_1726" result="shape"/>
</filter>
<filter id="filter1_d_191_1726" x="197.658" y="56.7862" width="83.4209" height="83.9245" filterUnits="userSpaceOnUse" color-interpolation-filters="sRGB">
<feFlood flood-opacity="0" result="BackgroundImageFix"/>
<feColorMatrix in="SourceAlpha" type="matrix" values="0 0 0 0 0 0 0 0 0 0 0 0 0 0 0 0 0 0 127 0" result="hardAlpha"/>
<feOffset dy="4"/>
<feGaussianBlur stdDeviation="2"/>
<feComposite in2="hardAlpha" operator="out"/>
<feColorMatrix type="matrix" values="0 0 0 0 0 0 0 0 0 0 0 0 0 0 0 0 0 0 0.5 0"/>
<feBlend mode="normal" in2="BackgroundImageFix" result="effect1_dropShadow_191_1726"/>
<feBlend mode="normal" in="SourceGraphic" in2="effect1_dropShadow_191_1726" result="shape"/>
</filter>
<filter id="filter2_d_191_1726" x="109.584" y="122.806" width="67.9736" height="34.0773" filterUnits="userSpaceOnUse" color-interpolation-filters="sRGB">
<feFlood flood-opacity="0" result="BackgroundImageFix"/>
<feColorMatrix in="SourceAlpha" type="matrix" values="0 0 0 0 0 0 0 0 0 0 0 0 0 0 0 0 0 0 127 0" result="hardAlpha"/>
<feOffset dy="4"/>
<feGaussianBlur stdDeviation="2"/>
<feComposite in2="hardAlpha" operator="out"/>
<feColorMatrix type="matrix" values="0 0 0 0 0 0 0 0 0 0 0 0 0 0 0 0 0 0 0.5 0"/>
<feBlend mode="normal" in2="BackgroundImageFix" result="effect1_dropShadow_191_1726"/>
<feBlend mode="normal" in="SourceGraphic" in2="effect1_dropShadow_191_1726" result="shape"/>
</filter>
<filter id="filter3_d_191_1726" x="146.602" y="188.626" width="68.8252" height="83.1819" filterUnits="userSpaceOnUse" color-interpolation-filters="sRGB">
<feFlood flood-opacity="0" result="BackgroundImageFix"/>
<feColorMatrix in="SourceAlpha" type="matrix" values="0 0 0 0 0 0 0 0 0 0 0 0 0 0 0 0 0 0 127 0" result="hardAlpha"/>
<feOffset dy="4"/>
<feGaussianBlur stdDeviation="2"/>
<feComposite in2="hardAlpha" operator="out"/>
<feColorMatrix type="matrix" values="0 0 0 0 0 0 0 0 0 0 0 0 0 0 0 0 0 0 0.5 0"/>
<feBlend mode="normal" in2="BackgroundImageFix" result="effect1_dropShadow_191_1726"/>
<feBlend mode="normal" in="SourceGraphic" in2="effect1_dropShadow_191_1726" result="shape"/>
</filter>
<filter id="filter4_d_191_1726" x="-0.000976562" y="89.553" width="90" height="70.6193" filterUnits="userSpaceOnUse" color-interpolation-filters="sRGB">
<feFlood flood-opacity="0" result="BackgroundImageFix"/>
<feColorMatrix in="SourceAlpha" type="matrix" values="0 0 0 0 0 0 0 0 0 0 0 0 0 0 0 0 0 0 127 0" result="hardAlpha"/>
<feOffset dy="4"/>
<feGaussianBlur stdDeviation="2"/>
<feComposite in2="hardAlpha" operator="out"/>
<feColorMatrix type="matrix" values="0 0 0 0 0 0 0 0 0 0 0 0 0 0 0 0 0 0 0.5 0"/>
<feBlend mode="normal" in2="BackgroundImageFix" result="effect1_dropShadow_191_1726"/>
<feBlend mode="normal" in="SourceGraphic" in2="effect1_dropShadow_191_1726" result="shape"/>
</filter>
<linearGradient id="paint0_linear_191_1726" x1="104.147" y1="-10.36" x2="104.147" y2="57.96" gradientUnits="userSpaceOnUse">
<stop stop-color="#FFD000"/>
<stop offset="1" stop-color="#003E85"/>
</linearGradient>
<linearGradient id="paint1_linear_191_1726" x1="104.147" y1="-10.36" x2="104.147" y2="57.96" gradientUnits="userSpaceOnUse">
<stop stop-color="#FFD000"/>
<stop offset="1" stop-color="#003E85"/>
</linearGradient>
<linearGradient id="paint2_linear_191_1726" x1="276.796" y1="57.7452" x2="231.354" y2="105.677" gradientUnits="userSpaceOnUse">
<stop stop-color="#FFD000"/>
<stop offset="1" stop-color="#003E85"/>
</linearGradient>
<linearGradient id="paint3_linear_191_1726" x1="276.796" y1="57.7452" x2="231.354" y2="105.677" gradientUnits="userSpaceOnUse">
<stop stop-color="#FFD000"/>
<stop offset="1" stop-color="#003E85"/>
</linearGradient>
<linearGradient id="paint4_linear_191_1726" x1="170.731" y1="126.275" x2="116.759" y2="146.351" gradientUnits="userSpaceOnUse">
<stop stop-color="#FFD000"/>
<stop offset="1" stop-color="#003E85"/>
</linearGradient>
<linearGradient id="paint5_linear_191_1726" x1="193.693" y1="193.711" x2="162.321" y2="264.488" gradientUnits="userSpaceOnUse">
<stop stop-color="#FFD000"/>
<stop offset="1" stop-color="#003E85"/>
</linearGradient>
<linearGradient id="paint6_linear_191_1726" x1="53.0199" y1="111.209" x2="39.3281" y2="132.059" gradientUnits="userSpaceOnUse">
<stop stop-color="#FFD000"/>
<stop offset="1" stop-color="#003E85"/>
</linearGradient>
<linearGradient id="paint7_linear_191_1726" x1="53.0199" y1="111.209" x2="39.3281" y2="132.059" gradientUnits="userSpaceOnUse">
<stop stop-color="#FFD000"/>
<stop offset="1" stop-color="#003E85"/>
</linearGradient>
<clipPath id="clip0_191_1726">
<rect width="83.4293" height="83.4293" fill="white" transform="translate(251.307 24) rotate(43.4722)"/>
</clipPath>
<clipPath id="clip1_191_1726">
<rect width="72" height="72" fill="white" transform="translate(148.563 88) rotate(49.2734)"/>
</clipPath>
<clipPath id="clip2_191_1726">
<rect width="103.225" height="103.225" fill="white" transform="translate(151.737 161) rotate(23.9055)"/>
</clipPath>
</defs>
</svg>
