<svg width="451" height="88" viewBox="0 0 451 88" fill="none" xmlns="http://www.w3.org/2000/svg">
<rect width="451" height="88" rx="44" fill="#FFD000"/>
<path d="M61.7619 60.5V26.837H80.0389C84.1876 26.837 87.7482 27.4903 90.7209 28.797C93.6936 30.071 95.9802 31.9657 97.5809 34.481C99.1816 36.9637 99.9819 40.0343 99.9819 43.693C99.9819 47.319 99.1816 50.3897 97.5809 52.905C95.9802 55.3877 93.6936 57.2823 90.7209 58.589C87.7482 59.863 84.1876 60.5 80.0389 60.5H61.7619ZM70.2389 53.787H79.5979C81.2966 53.787 82.8482 53.591 84.2529 53.199C85.6902 52.7743 86.9316 52.17 87.9769 51.386C89.0222 50.5693 89.8226 49.573 90.3779 48.397C90.9332 47.1883 91.2109 45.8 91.2109 44.232V43.105C91.2109 41.537 90.9332 40.165 90.3779 38.989C89.8226 37.7803 89.0222 36.784 87.9769 36C86.9316 35.1833 85.6902 34.5627 84.2529 34.138C82.8482 33.7133 81.2966 33.501 79.5979 33.501H70.2389V53.787ZM121.963 61.088C118.533 61.088 115.577 60.6143 113.094 59.667C110.611 58.687 108.684 57.2007 107.312 55.208C105.973 53.2153 105.303 50.6837 105.303 47.613C105.303 44.6077 105.956 42.1087 107.263 40.116C108.602 38.0907 110.497 36.588 112.947 35.608C115.43 34.5953 118.337 34.089 121.669 34.089C125.164 34.089 128.121 34.579 130.538 35.559C132.955 36.539 134.785 37.9927 136.026 39.92C137.267 41.8473 137.888 44.232 137.888 47.074V49.328H113.339C113.437 50.8307 113.845 52.0557 114.564 53.003C115.283 53.9177 116.279 54.5873 117.553 55.012C118.86 55.4367 120.379 55.649 122.11 55.649C122.894 55.649 123.711 55.5673 124.56 55.404C125.442 55.208 126.259 54.9467 127.01 54.62C127.794 54.2933 128.447 53.885 128.97 53.395C129.493 52.8723 129.787 52.2517 129.852 51.533H137.692C137.692 52.905 137.333 54.179 136.614 55.355C135.895 56.531 134.85 57.5437 133.478 58.393C132.106 59.2423 130.44 59.912 128.48 60.402C126.553 60.8593 124.38 61.088 121.963 61.088ZM113.388 44.673H129.705C129.705 43.8237 129.509 43.0887 129.117 42.468C128.725 41.8147 128.153 41.2757 127.402 40.851C126.683 40.3937 125.85 40.067 124.903 39.871C123.956 39.6423 122.927 39.528 121.816 39.528C120.215 39.528 118.794 39.7403 117.553 40.165C116.344 40.557 115.381 41.145 114.662 41.929C113.976 42.6803 113.551 43.595 113.388 44.673ZM156.841 61.088C154.913 61.088 153.068 60.9247 151.304 60.598C149.54 60.304 147.955 59.8467 146.551 59.226C145.179 58.6053 144.084 57.7887 143.268 56.776C142.451 55.7633 142.043 54.571 142.043 53.199C142.043 53.0357 142.043 52.8887 142.043 52.758C142.075 52.6273 142.108 52.4967 142.141 52.366H149.981C149.981 52.4313 149.964 52.513 149.932 52.611C149.932 52.709 149.932 52.7907 149.932 52.856C149.932 53.6073 150.258 54.2117 150.912 54.669C151.565 55.1263 152.414 55.4693 153.46 55.698C154.538 55.894 155.681 55.992 156.89 55.992C158.033 55.992 159.144 55.9267 160.222 55.796C161.332 55.6653 162.247 55.4203 162.966 55.061C163.684 54.669 164.044 54.081 164.044 53.297C164.044 52.513 163.619 51.9413 162.77 51.582C161.92 51.2227 160.728 50.9613 159.193 50.798C157.69 50.602 155.926 50.357 153.901 50.063C152.365 49.8343 150.928 49.5403 149.589 49.181C148.282 48.8217 147.122 48.3643 146.11 47.809C145.13 47.221 144.362 46.4697 143.807 45.555C143.251 44.6403 142.974 43.5133 142.974 42.174C142.974 40.7367 143.317 39.5117 144.003 38.499C144.689 37.4537 145.652 36.6043 146.894 35.951C148.168 35.2977 149.687 34.824 151.451 34.53C153.215 34.236 155.158 34.089 157.282 34.089C159.144 34.089 160.891 34.236 162.525 34.53C164.191 34.824 165.644 35.2813 166.886 35.902C168.127 36.5227 169.107 37.2903 169.826 38.205C170.544 39.1197 170.904 40.1813 170.904 41.39C170.904 41.5207 170.904 41.6513 170.904 41.782C170.904 41.9127 170.887 42.027 170.855 42.125H163.015V41.88C163.015 41.2267 162.737 40.704 162.182 40.312C161.626 39.92 160.908 39.6423 160.026 39.479C159.144 39.283 158.196 39.185 157.184 39.185C156.824 39.185 156.285 39.2013 155.567 39.234C154.848 39.2667 154.097 39.3483 153.313 39.479C152.561 39.6097 151.924 39.822 151.402 40.116C150.879 40.41 150.618 40.8347 150.618 41.39C150.618 42.076 151.026 42.5823 151.843 42.909C152.659 43.2357 153.721 43.4807 155.028 43.644C156.367 43.8073 157.804 43.987 159.34 44.183C160.973 44.379 162.525 44.624 163.995 44.918C165.497 45.212 166.82 45.653 167.964 46.241C169.14 46.7963 170.054 47.564 170.708 48.544C171.361 49.524 171.688 50.798 171.688 52.366C171.688 53.9993 171.345 55.3877 170.659 56.531C169.973 57.6417 168.976 58.54 167.67 59.226C166.396 59.8793 164.828 60.353 162.966 60.647C161.136 60.941 159.095 61.088 156.841 61.088ZM192.346 61.088C188.948 61.088 186.025 60.598 183.575 59.618C181.157 58.6053 179.295 57.1027 177.989 55.11C176.682 53.0847 176.029 50.5693 176.029 47.564C176.029 44.5587 176.682 42.0597 177.989 40.067C179.295 38.0743 181.157 36.588 183.575 35.608C186.025 34.5953 188.948 34.089 192.346 34.089C194.469 34.089 196.462 34.3177 198.324 34.775C200.218 35.1997 201.868 35.8693 203.273 36.784C204.677 37.666 205.772 38.7767 206.556 40.116C207.34 41.4553 207.732 43.0233 207.732 44.82H199.99C199.99 43.7093 199.647 42.7783 198.961 42.027C198.275 41.2757 197.344 40.704 196.168 40.312C195.024 39.8873 193.75 39.675 192.346 39.675C190.549 39.675 189.03 39.969 187.789 40.557C186.547 41.145 185.6 41.9943 184.947 43.105C184.293 44.183 183.967 45.506 183.967 47.074V48.054C183.967 49.5893 184.293 50.9123 184.947 52.023C185.633 53.1337 186.613 53.9993 187.887 54.62C189.193 55.208 190.778 55.502 192.64 55.502C194.012 55.502 195.269 55.2897 196.413 54.865C197.589 54.4077 198.52 53.787 199.206 53.003C199.924 52.219 200.284 51.3207 200.284 50.308H207.732C207.732 52.1373 207.323 53.738 206.507 55.11C205.723 56.4493 204.628 57.56 203.224 58.442C201.852 59.324 200.218 59.9937 198.324 60.451C196.462 60.8757 194.469 61.088 192.346 61.088ZM213.473 60.5V34.677H219.647L220.186 39.136H220.578C221.002 38.1887 221.574 37.3393 222.293 36.588C223.044 35.804 223.926 35.1997 224.939 34.775C225.951 34.3177 227.095 34.089 228.369 34.089C228.957 34.089 229.545 34.138 230.133 34.236C230.721 34.3013 231.26 34.4157 231.75 34.579V40.998H227.977C226.735 40.998 225.674 41.2103 224.792 41.635C223.942 42.027 223.24 42.5823 222.685 43.301C222.162 43.987 221.77 44.771 221.509 45.653C221.247 46.5023 221.117 47.4007 221.117 48.348V60.5H213.473ZM235.772 30.708V25.024H243.416V30.708H235.772ZM235.772 60.5V34.677H243.416V60.5H235.772ZM250.175 69.761V34.677H256.349L256.986 38.744H257.427C258.636 37.0127 260.106 35.804 261.837 35.118C263.601 34.432 265.512 34.089 267.57 34.089C270.216 34.089 272.535 34.579 274.528 35.559C276.521 36.539 278.072 38.0253 279.183 40.018C280.326 42.0107 280.898 44.526 280.898 47.564C280.898 50.602 280.343 53.1337 279.232 55.159C278.121 57.1517 276.586 58.638 274.626 59.618C272.699 60.598 270.461 61.088 267.913 61.088C266.639 61.088 265.381 60.941 264.14 60.647C262.931 60.3857 261.821 59.9773 260.808 59.422C259.795 58.8667 258.93 58.1643 258.211 57.315H257.819V69.761H250.175ZM265.561 54.963C267.162 54.963 268.517 54.6853 269.628 54.13C270.771 53.542 271.637 52.7253 272.225 51.68C272.813 50.6347 273.107 49.3933 273.107 47.956V47.221C273.107 45.751 272.813 44.4933 272.225 43.448C271.637 42.37 270.771 41.5533 269.628 40.998C268.485 40.4427 267.096 40.165 265.463 40.165C263.862 40.165 262.474 40.459 261.298 41.047C260.155 41.635 259.273 42.468 258.652 43.546C258.064 44.5913 257.77 45.8653 257.77 47.368V47.76C257.77 48.8707 257.933 49.8833 258.26 50.798C258.619 51.68 259.126 52.4313 259.779 53.052C260.465 53.6727 261.282 54.1463 262.229 54.473C263.209 54.7997 264.32 54.963 265.561 54.963ZM298.105 61.088C296.112 61.088 294.463 60.843 293.156 60.353C291.882 59.8303 290.935 58.9647 290.314 57.756C289.693 56.5147 289.383 54.8323 289.383 52.709V40.263H284.385V34.677H289.628L291.147 27.033H297.027V34.677H304.132V40.263H297.027V51.729C297.027 52.9703 297.256 53.9177 297.713 54.571C298.203 55.1917 299.232 55.502 300.8 55.502H304.132V60.255C303.675 60.4183 303.07 60.5653 302.319 60.696C301.6 60.8267 300.849 60.9247 300.065 60.99C299.314 61.0553 298.66 61.088 298.105 61.088ZM309.607 30.708V25.024H317.251V30.708H309.607ZM309.607 60.5V34.677H317.251V60.5H309.607ZM339.249 61.088C335.884 61.088 332.977 60.5817 330.527 59.569C328.11 58.5563 326.231 57.0537 324.892 55.061C323.585 53.0357 322.932 50.5367 322.932 47.564C322.932 44.5587 323.585 42.0597 324.892 40.067C326.231 38.0743 328.11 36.588 330.527 35.608C332.977 34.5953 335.884 34.089 339.249 34.089C342.614 34.089 345.505 34.5953 347.922 35.608C350.372 36.588 352.25 38.0743 353.557 40.067C354.896 42.0597 355.566 44.5587 355.566 47.564C355.566 50.5367 354.896 53.0357 353.557 55.061C352.25 57.0537 350.372 58.5563 347.922 59.569C345.505 60.5817 342.614 61.088 339.249 61.088ZM339.249 55.502C341.013 55.502 342.516 55.208 343.757 54.62C345.031 53.9993 345.995 53.1337 346.648 52.023C347.301 50.9123 347.628 49.5893 347.628 48.054V47.074C347.628 45.506 347.301 44.183 346.648 43.105C345.995 41.9943 345.031 41.145 343.757 40.557C342.516 39.969 341.013 39.675 339.249 39.675C337.452 39.675 335.933 39.969 334.692 40.557C333.451 41.145 332.503 41.9943 331.85 43.105C331.197 44.183 330.87 45.506 330.87 47.074V48.054C330.87 49.5893 331.197 50.9123 331.85 52.023C332.503 53.1337 333.451 53.9993 334.692 54.62C335.933 55.208 337.452 55.502 339.249 55.502ZM361.238 60.5V34.677H367.412L367.951 39.038H368.392C369.34 37.7967 370.401 36.8167 371.577 36.098C372.786 35.3793 374.06 34.873 375.399 34.579C376.771 34.2523 378.111 34.089 379.417 34.089C381.867 34.089 383.909 34.481 385.542 35.265C387.208 36.0163 388.45 37.176 389.266 38.744C390.083 40.312 390.491 42.2883 390.491 44.673V60.5H382.847V45.898C382.847 44.8853 382.7 44.0197 382.406 43.301C382.112 42.5497 381.704 41.9453 381.181 41.488C380.659 41.0307 380.005 40.704 379.221 40.508C378.47 40.2793 377.621 40.165 376.673 40.165C375.301 40.165 374.027 40.459 372.851 41.047C371.675 41.6023 370.712 42.3863 369.96 43.399C369.242 44.379 368.882 45.5387 368.882 46.878V60.5H361.238Z" fill="black"/>
</svg>
